<svg id="visual" viewBox="0 0 900 600" width="900" height="600" xmlns="http://www.w3.org/2000/svg" xmlns:xlink="http://www.w3.org/1999/xlink" version="1.1"><rect width="900" height="600" fill="#000000"></rect><g><g transform="translate(383 9)"><path d="M0 -26.7L23.1 -13.3L23.1 13.3L0 26.7L-23.1 13.3L-23.1 -13.3Z" fill="none" stroke="#ffffff" stroke-width="2"></path></g><g transform="translate(113 192)"><path d="M0 -14L12.1 -7L12.1 7L0 14L-12.1 7L-12.1 -7Z" fill="none" stroke="#ffffff" stroke-width="2"></path></g><g transform="translate(331 148)"><path d="M0 -25L21.7 -12.5L21.7 12.5L0 25L-21.7 12.5L-21.7 -12.5Z" fill="none" stroke="#ffffff" stroke-width="2"></path></g><g transform="translate(94 454)"><path d="M0 -22L19.1 -11L19.1 11L0 22L-19.1 11L-19.1 -11Z" fill="none" stroke="#ffffff" stroke-width="2"></path></g><g transform="translate(843 562)"><path d="M0 -23L19.9 -11.5L19.9 11.5L0 23L-19.9 11.5L-19.9 -11.5Z" fill="none" stroke="#ffffff" stroke-width="2"></path></g><g transform="translate(665 142)"><path d="M0 -18L15.6 -9L15.6 9L0 18L-15.6 9L-15.6 -9Z" fill="none" stroke="#ffffff" stroke-width="2"></path></g><g transform="translate(599 376)"><path d="M0 -15L13 -7.5L13 7.5L0 15L-13 7.5L-13 -7.5Z" fill="none" stroke="#ffffff" stroke-width="2"></path></g><g transform="translate(242 198)"><path d="M0 -13L11.3 -6.5L11.3 6.5L0 13L-11.3 6.5L-11.3 -6.5Z" fill="none" stroke="#ffffff" stroke-width="2"></path></g><g transform="translate(45 83)"><path d="M0 -3L2.6 -1.5L2.6 1.5L0 3L-2.6 1.5L-2.6 -1.5Z" fill="none" stroke="#ffffff" stroke-width="2"></path></g><g transform="translate(572 165)"><path d="M0 -23L19.9 -11.5L19.9 11.5L0 23L-19.9 11.5L-19.9 -11.5Z" fill="none" stroke="#ffffff" stroke-width="2"></path></g><g transform="translate(579 3)"><path d="M0 -9L7.8 -4.5L7.8 4.5L0 9L-7.8 4.5L-7.8 -4.5Z" fill="none" stroke="#ffffff" stroke-width="2"></path></g><g transform="translate(475 374)"><path d="M0 -12L10.4 -6L10.4 6L0 12L-10.4 6L-10.4 -6Z" fill="none" stroke="#ffffff" stroke-width="2"></path></g><g transform="translate(491 19)"><path d="M0 -21L18.2 -10.5L18.2 10.5L0 21L-18.2 10.5L-18.2 -10.5Z" fill="none" stroke="#ffffff" stroke-width="2"></path></g><g transform="translate(296 417)"><path d="M0 -18L15.6 -9L15.6 9L0 18L-15.6 9L-15.6 -9Z" fill="none" stroke="#ffffff" stroke-width="2"></path></g><g transform="translate(771 570)"><path d="M0 -22L19.1 -11L19.1 11L0 22L-19.1 11L-19.1 -11Z" fill="none" stroke="#ffffff" stroke-width="2"></path></g><g transform="translate(491 234)"><path d="M0 -10L8.7 -5L8.7 5L0 10L-8.7 5L-8.7 -5Z" fill="none" stroke="#ffffff" stroke-width="2"></path></g><g transform="translate(734 135)"><path d="M0 -14L12.1 -7L12.1 7L0 14L-12.1 7L-12.1 -7Z" fill="none" stroke="#ffffff" stroke-width="2"></path></g><g transform="translate(288 496)"><path d="M0 -17L14.7 -8.5L14.7 8.5L0 17L-14.7 8.5L-14.7 -8.5Z" fill="none" stroke="#ffffff" stroke-width="2"></path></g><g transform="translate(70 541)"><path d="M0 -11L9.5 -5.5L9.5 5.5L0 11L-9.5 5.5L-9.5 -5.5Z" fill="none" stroke="#ffffff" stroke-width="2"></path></g><g transform="translate(509 135)"><path d="M0 -20L17.3 -10L17.3 10L0 20L-17.3 10L-17.3 -10Z" fill="none" stroke="#ffffff" stroke-width="2"></path></g><g transform="translate(788 48)"><path d="M0 -14L12.1 -7L12.1 7L0 14L-12.1 7L-12.1 -7Z" fill="none" stroke="#ffffff" stroke-width="2"></path></g><g transform="translate(439 569)"><path d="M0 -19L16.5 -9.5L16.5 9.5L0 19L-16.5 9.5L-16.5 -9.5Z" fill="none" stroke="#ffffff" stroke-width="2"></path></g><g transform="translate(192 439)"><path d="M0 -20L17.3 -10L17.3 10L0 20L-17.3 10L-17.3 -10Z" fill="none" stroke="#ffffff" stroke-width="2"></path></g><g transform="translate(701 454)"><path d="M0 -6L5.2 -3L5.2 3L0 6L-5.2 3L-5.2 -3Z" fill="none" stroke="#ffffff" stroke-width="2"></path></g><g transform="translate(540 274)"><path d="M0 -13L11.3 -6.5L11.3 6.5L0 13L-11.3 6.5L-11.3 -6.5Z" fill="none" stroke="#ffffff" stroke-width="2"></path></g><g transform="translate(69 1)"><path d="M0 -15L13 -7.5L13 7.5L0 15L-13 7.5L-13 -7.5Z" fill="none" stroke="#ffffff" stroke-width="2"></path></g><g transform="translate(715 397)"><path d="M0 -15L13 -7.5L13 7.5L0 15L-13 7.5L-13 -7.5Z" fill="none" stroke="#ffffff" stroke-width="2"></path></g><g transform="translate(624 513)"><path d="M0 -14L12.1 -7L12.1 7L0 14L-12.1 7L-12.1 -7Z" fill="none" stroke="#ffffff" stroke-width="2"></path></g><g transform="translate(559 458)"><path d="M0 -8L6.9 -4L6.9 4L0 8L-6.9 4L-6.9 -4Z" fill="none" stroke="#ffffff" stroke-width="2"></path></g><g transform="translate(819 445)"><path d="M0 -3L2.6 -1.5L2.6 1.5L0 3L-2.6 1.5L-2.6 -1.5Z" fill="none" stroke="#ffffff" stroke-width="2"></path></g><g transform="translate(29 294)"><path d="M0 -9L7.8 -4.5L7.8 4.5L0 9L-7.8 4.5L-7.8 -4.5Z" fill="none" stroke="#ffffff" stroke-width="2"></path></g><g transform="translate(390 309)"><path d="M0 -19L16.5 -9.5L16.5 9.5L0 19L-16.5 9.5L-16.5 -9.5Z" fill="none" stroke="#ffffff" stroke-width="2"></path></g><g transform="translate(791 166)"><path d="M0 -17L14.7 -8.5L14.7 8.5L0 17L-14.7 8.5L-14.7 -8.5Z" fill="none" stroke="#ffffff" stroke-width="2"></path></g><g transform="translate(10 563)"><path d="M0 -7L6.1 -3.5L6.1 3.5L0 7L-6.1 3.5L-6.1 -3.5Z" fill="none" stroke="#ffffff" stroke-width="2"></path></g><g transform="translate(702 55)"><path d="M0 -6L5.2 -3L5.2 3L0 6L-5.2 3L-5.2 -3Z" fill="none" stroke="#ffffff" stroke-width="2"></path></g><g transform="translate(24 421)"><path d="M0 -17L14.7 -8.5L14.7 8.5L0 17L-14.7 8.5L-14.7 -8.5Z" fill="none" stroke="#ffffff" stroke-width="2"></path></g><g transform="translate(175 585)"><path d="M0 -20L17.3 -10L17.3 10L0 20L-17.3 10L-17.3 -10Z" fill="none" stroke="#ffffff" stroke-width="2"></path></g><g transform="translate(187 515)"><path d="M0 -20L17.3 -10L17.3 10L0 20L-17.3 10L-17.3 -10Z" fill="none" stroke="#ffffff" stroke-width="2"></path></g><g transform="translate(139 488)"><path d="M0 -9L7.8 -4.5L7.8 4.5L0 9L-7.8 4.5L-7.8 -4.5Z" fill="none" stroke="#ffffff" stroke-width="2"></path></g><g transform="translate(879 186)"><path d="M0 -16L13.9 -8L13.9 8L0 16L-13.9 8L-13.9 -8Z" fill="none" stroke="#ffffff" stroke-width="2"></path></g><g transform="translate(98 385)"><path d="M0 -23L19.9 -11.5L19.9 11.5L0 23L-19.9 11.5L-19.9 -11.5Z" fill="none" stroke="#ffffff" stroke-width="2"></path></g><g transform="translate(583 220)"><path d="M0 -13L11.3 -6.5L11.3 6.5L0 13L-11.3 6.5L-11.3 -6.5Z" fill="none" stroke="#ffffff" stroke-width="2"></path></g><g transform="translate(159 112)"><path d="M0 -22L19.1 -11L19.1 11L0 22L-19.1 11L-19.1 -11Z" fill="none" stroke="#ffffff" stroke-width="2"></path></g><g transform="translate(854 350)"><path d="M0 -3L2.6 -1.5L2.6 1.5L0 3L-2.6 1.5L-2.6 -1.5Z" fill="none" stroke="#ffffff" stroke-width="2"></path></g><g transform="translate(282 336)"><path d="M0 -4L3.5 -2L3.5 2L0 4L-3.5 2L-3.5 -2Z" fill="none" stroke="#ffffff" stroke-width="2"></path></g><g transform="translate(15 235)"><path d="M0 -6L5.2 -3L5.2 3L0 6L-5.2 3L-5.2 -3Z" fill="none" stroke="#ffffff" stroke-width="2"></path></g><g transform="translate(184 338)"><path d="M0 -9L7.8 -4.5L7.8 4.5L0 9L-7.8 4.5L-7.8 -4.5Z" fill="none" stroke="#ffffff" stroke-width="2"></path></g><g transform="translate(708 304)"><path d="M0 -24L20.8 -12L20.8 12L0 24L-20.8 12L-20.8 -12Z" fill="none" stroke="#ffffff" stroke-width="2"></path></g><g transform="translate(338 255)"><path d="M0 -3L2.6 -1.5L2.6 1.5L0 3L-2.6 1.5L-2.6 -1.5Z" fill="none" stroke="#ffffff" stroke-width="2"></path></g><g transform="translate(865 134)"><path d="M0 -22L19.1 -11L19.1 11L0 22L-19.1 11L-19.1 -11Z" fill="none" stroke="#ffffff" stroke-width="2"></path></g><g transform="translate(578 58)"><path d="M0 -15L13 -7.5L13 7.5L0 15L-13 7.5L-13 -7.5Z" fill="none" stroke="#ffffff" stroke-width="2"></path></g><g transform="translate(41 369)"><path d="M0 -15L13 -7.5L13 7.5L0 15L-13 7.5L-13 -7.5Z" fill="none" stroke="#ffffff" stroke-width="2"></path></g><g transform="translate(277 21)"><path d="M0 -23L19.9 -11.5L19.9 11.5L0 23L-19.9 11.5L-19.9 -11.5Z" fill="none" stroke="#ffffff" stroke-width="2"></path></g><g transform="translate(224 379)"><path d="M0 -12L10.4 -6L10.4 6L0 12L-10.4 6L-10.4 -6Z" fill="none" stroke="#ffffff" stroke-width="2"></path></g><g transform="translate(361 440)"><path d="M0 -16L13.9 -8L13.9 8L0 16L-13.9 8L-13.9 -8Z" fill="none" stroke="#ffffff" stroke-width="2"></path></g><g transform="translate(311 553)"><path d="M0 -18L15.6 -9L15.6 9L0 18L-15.6 9L-15.6 -9Z" fill="none" stroke="#ffffff" stroke-width="2"></path></g><g transform="translate(366 505)"><path d="M0 -15L13 -7.5L13 7.5L0 15L-13 7.5L-13 -7.5Z" fill="none" stroke="#ffffff" stroke-width="2"></path></g><g transform="translate(73 595)"><path d="M0 -15L13 -7.5L13 7.5L0 15L-13 7.5L-13 -7.5Z" fill="none" stroke="#ffffff" stroke-width="2"></path></g><g transform="translate(404 233)"><path d="M0 -20L17.3 -10L17.3 10L0 20L-17.3 10L-17.3 -10Z" fill="none" stroke="#ffffff" stroke-width="2"></path></g><g transform="translate(562 591)"><path d="M0 -25L21.7 -12.5L21.7 12.5L0 25L-21.7 12.5L-21.7 -12.5Z" fill="none" stroke="#ffffff" stroke-width="2"></path></g><g transform="translate(679 590)"><path d="M0 -17L14.7 -8.5L14.7 8.5L0 17L-14.7 8.5L-14.7 -8.5Z" fill="none" stroke="#ffffff" stroke-width="2"></path></g><g transform="translate(150 54)"><path d="M0 -7L6.1 -3.5L6.1 3.5L0 7L-6.1 3.5L-6.1 -3.5Z" fill="none" stroke="#ffffff" stroke-width="2"></path></g><g transform="translate(16 178)"><path d="M0 -20L17.3 -10L17.3 10L0 20L-17.3 10L-17.3 -10Z" fill="none" stroke="#ffffff" stroke-width="2"></path></g><g transform="translate(327 60)"><path d="M0 -6L5.2 -3L5.2 3L0 6L-5.2 3L-5.2 -3Z" fill="none" stroke="#ffffff" stroke-width="2"></path></g><g transform="translate(641 420)"><path d="M0 -12L10.4 -6L10.4 6L0 12L-10.4 6L-10.4 -6Z" fill="none" stroke="#ffffff" stroke-width="2"></path></g><g transform="translate(621 97)"><path d="M0 -8L6.9 -4L6.9 4L0 8L-6.9 4L-6.9 -4Z" fill="none" stroke="#ffffff" stroke-width="2"></path></g><g transform="translate(257 581)"><path d="M0 -13L11.3 -6.5L11.3 6.5L0 13L-11.3 6.5L-11.3 -6.5Z" fill="none" stroke="#ffffff" stroke-width="2"></path></g><g transform="translate(252 284)"><path d="M0 -9L7.8 -4.5L7.8 4.5L0 9L-7.8 4.5L-7.8 -4.5Z" fill="none" stroke="#ffffff" stroke-width="2"></path></g><g transform="translate(142 239)"><path d="M0 -18L15.6 -9L15.6 9L0 18L-15.6 9L-15.6 -9Z" fill="none" stroke="#ffffff" stroke-width="2"></path></g><g transform="translate(604 317)"><path d="M0 -5L4.3 -2.5L4.3 2.5L0 5L-4.3 2.5L-4.3 -2.5Z" fill="none" stroke="#ffffff" stroke-width="2"></path></g><g transform="translate(440 328)"><path d="M0 -3L2.6 -1.5L2.6 1.5L0 3L-2.6 1.5L-2.6 -1.5Z" fill="none" stroke="#ffffff" stroke-width="2"></path></g><g transform="translate(26 500)"><path d="M0 -8L6.9 -4L6.9 4L0 8L-6.9 4L-6.9 -4Z" fill="none" stroke="#ffffff" stroke-width="2"></path></g><g transform="translate(275 96)"><path d="M0 -3L2.6 -1.5L2.6 1.5L0 3L-2.6 1.5L-2.6 -1.5Z" fill="none" stroke="#ffffff" stroke-width="2"></path></g><g transform="translate(628 22)"><path d="M0 -8L6.9 -4L6.9 4L0 8L-6.9 4L-6.9 -4Z" fill="none" stroke="#ffffff" stroke-width="2"></path></g><g transform="translate(899 452)"><path d="M0 -4L3.5 -2L3.5 2L0 4L-3.5 2L-3.5 -2Z" fill="none" stroke="#ffffff" stroke-width="2"></path></g><g transform="translate(744 241)"><path d="M0 -20L17.3 -10L17.3 10L0 20L-17.3 10L-17.3 -10Z" fill="none" stroke="#ffffff" stroke-width="2"></path></g><g transform="translate(395 135)"><path d="M0 -11L9.5 -5.5L9.5 5.5L0 11L-9.5 5.5L-9.5 -5.5Z" fill="none" stroke="#ffffff" stroke-width="2"></path></g><g transform="translate(844 246)"><path d="M0 -9L7.8 -4.5L7.8 4.5L0 9L-7.8 4.5L-7.8 -4.5Z" fill="none" stroke="#ffffff" stroke-width="2"></path></g><g transform="translate(695 197)"><path d="M0 -18L15.6 -9L15.6 9L0 18L-15.6 9L-15.6 -9Z" fill="none" stroke="#ffffff" stroke-width="2"></path></g><g transform="translate(226 47)"><path d="M0 -15L13 -7.5L13 7.5L0 15L-13 7.5L-13 -7.5Z" fill="none" stroke="#ffffff" stroke-width="2"></path></g><g transform="translate(521 409)"><path d="M0 -23L19.9 -11.5L19.9 11.5L0 23L-19.9 11.5L-19.9 -11.5Z" fill="none" stroke="#ffffff" stroke-width="2"></path></g><g transform="translate(816 391)"><path d="M0 -23L19.9 -11.5L19.9 11.5L0 23L-19.9 11.5L-19.9 -11.5Z" fill="none" stroke="#ffffff" stroke-width="2"></path></g><g transform="translate(880 14)"><path d="M0 -4L3.5 -2L3.5 2L0 4L-3.5 2L-3.5 -2Z" fill="none" stroke="#ffffff" stroke-width="2"></path></g><g transform="translate(667 371)"><path d="M0 -14L12.1 -7L12.1 7L0 14L-12.1 7L-12.1 -7Z" fill="none" stroke="#ffffff" stroke-width="2"></path></g><g transform="translate(423 453)"><path d="M0 -5L4.3 -2.5L4.3 2.5L0 5L-4.3 2.5L-4.3 -2.5Z" fill="none" stroke="#ffffff" stroke-width="2"></path></g><g transform="translate(692 522)"><path d="M0 -9L7.8 -4.5L7.8 4.5L0 9L-7.8 4.5L-7.8 -4.5Z" fill="none" stroke="#ffffff" stroke-width="2"></path></g><g transform="translate(529 527)"><path d="M0 -25L21.7 -12.5L21.7 12.5L0 25L-21.7 12.5L-21.7 -12.5Z" fill="none" stroke="#ffffff" stroke-width="2"></path></g><g transform="translate(438 6)"><path d="M0 -21L18.2 -10.5L18.2 10.5L0 21L-18.2 10.5L-18.2 -10.5Z" fill="none" stroke="#ffffff" stroke-width="2"></path></g><g transform="translate(832 298)"><path d="M0 -8L6.9 -4L6.9 4L0 8L-6.9 4L-6.9 -4Z" fill="none" stroke="#ffffff" stroke-width="2"></path></g><g transform="translate(793 521)"><path d="M0 -5L4.3 -2.5L4.3 2.5L0 5L-4.3 2.5L-4.3 -2.5Z" fill="none" stroke="#ffffff" stroke-width="2"></path></g><g transform="translate(89 294)"><path d="M0 -25L21.7 -12.5L21.7 12.5L0 25L-21.7 12.5L-21.7 -12.5Z" fill="none" stroke="#ffffff" stroke-width="2"></path></g><g transform="translate(274 154)"><path d="M0 -13L11.3 -6.5L11.3 6.5L0 13L-11.3 6.5L-11.3 -6.5Z" fill="none" stroke="#ffffff" stroke-width="2"></path></g><g transform="translate(477 480)"><path d="M0 -18L15.6 -9L15.6 9L0 18L-15.6 9L-15.6 -9Z" fill="none" stroke="#ffffff" stroke-width="2"></path></g><g transform="translate(464 184)"><path d="M0 -13L11.3 -6.5L11.3 6.5L0 13L-11.3 6.5L-11.3 -6.5Z" fill="none" stroke="#ffffff" stroke-width="2"></path></g><g transform="translate(760 333)"><path d="M0 -24L20.8 -12L20.8 12L0 24L-20.8 12L-20.8 -12Z" fill="none" stroke="#ffffff" stroke-width="2"></path></g><g transform="translate(521 338)"><path d="M0 -4L3.5 -2L3.5 2L0 4L-3.5 2L-3.5 -2Z" fill="none" stroke="#ffffff" stroke-width="2"></path></g><g transform="translate(752 8)"><path d="M0 -16L13.9 -8L13.9 8L0 16L-13.9 8L-13.9 -8Z" fill="none" stroke="#ffffff" stroke-width="2"></path></g><g transform="translate(625 591)"><path d="M0 -15L13 -7.5L13 7.5L0 15L-13 7.5L-13 -7.5Z" fill="none" stroke="#ffffff" stroke-width="2"></path></g><g transform="translate(307 201)"><path d="M0 -16L13.9 -8L13.9 8L0 16L-13.9 8L-13.9 -8Z" fill="none" stroke="#ffffff" stroke-width="2"></path></g><g transform="translate(645 234)"><path d="M0 -5L4.3 -2.5L4.3 2.5L0 5L-4.3 2.5L-4.3 -2.5Z" fill="none" stroke="#ffffff" stroke-width="2"></path></g><g transform="translate(521 77)"><path d="M0 -22L19.1 -11L19.1 11L0 22L-19.1 11L-19.1 -11Z" fill="none" stroke="#ffffff" stroke-width="2"></path></g><g transform="translate(860 511)"><path d="M0 -17L14.7 -8.5L14.7 8.5L0 17L-14.7 8.5L-14.7 -8.5Z" fill="none" stroke="#ffffff" stroke-width="2"></path></g><g transform="translate(365 559)"><path d="M0 -7L6.1 -3.5L6.1 3.5L0 7L-6.1 3.5L-6.1 -3.5Z" fill="none" stroke="#ffffff" stroke-width="2"></path></g><g transform="translate(4 31)"><path d="M0 -17L14.7 -8.5L14.7 8.5L0 17L-14.7 8.5L-14.7 -8.5Z" fill="none" stroke="#ffffff" stroke-width="2"></path></g><g transform="translate(97 114)"><path d="M0 -14L12.1 -7L12.1 7L0 14L-12.1 7L-12.1 -7Z" fill="none" stroke="#ffffff" stroke-width="2"></path></g><g transform="translate(155 399)"><path d="M0 -25L21.7 -12.5L21.7 12.5L0 25L-21.7 12.5L-21.7 -12.5Z" fill="none" stroke="#ffffff" stroke-width="2"></path></g><g transform="translate(447 68)"><path d="M0 -13L11.3 -6.5L11.3 6.5L0 13L-11.3 6.5L-11.3 -6.5Z" fill="none" stroke="#ffffff" stroke-width="2"></path></g><g transform="translate(122 562)"><path d="M0 -19L16.5 -9.5L16.5 9.5L0 19L-16.5 9.5L-16.5 -9.5Z" fill="none" stroke="#ffffff" stroke-width="2"></path></g><g transform="translate(896 295)"><path d="M0 -8L6.9 -4L6.9 4L0 8L-6.9 4L-6.9 -4Z" fill="none" stroke="#ffffff" stroke-width="2"></path></g><g transform="translate(450 273)"><path d="M0 -24L20.8 -12L20.8 12L0 24L-20.8 12L-20.8 -12Z" fill="none" stroke="#ffffff" stroke-width="2"></path></g><g transform="translate(500 584)"><path d="M0 -20L17.3 -10L17.3 10L0 20L-17.3 10L-17.3 -10Z" fill="none" stroke="#ffffff" stroke-width="2"></path></g><g transform="translate(895 393)"><path d="M0 -17L14.7 -8.5L14.7 8.5L0 17L-14.7 8.5L-14.7 -8.5Z" fill="none" stroke="#ffffff" stroke-width="2"></path></g><g transform="translate(179 179)"><path d="M0 -12L10.4 -6L10.4 6L0 12L-10.4 6L-10.4 -6Z" fill="none" stroke="#ffffff" stroke-width="2"></path></g><g transform="translate(205 256)"><path d="M0 -10L8.7 -5L8.7 5L0 10L-8.7 5L-8.7 -5Z" fill="none" stroke="#ffffff" stroke-width="2"></path></g><g transform="translate(861 73)"><path d="M0 -8L6.9 -4L6.9 4L0 8L-6.9 4L-6.9 -4Z" fill="none" stroke="#ffffff" stroke-width="2"></path></g><g transform="translate(764 437)"><path d="M0 -9L7.8 -4.5L7.8 4.5L0 9L-7.8 4.5L-7.8 -4.5Z" fill="none" stroke="#ffffff" stroke-width="2"></path></g><g transform="translate(347 363)"><path d="M0 -6L5.2 -3L5.2 3L0 6L-5.2 3L-5.2 -3Z" fill="none" stroke="#ffffff" stroke-width="2"></path></g><g transform="translate(389 65)"><path d="M0 -6L5.2 -3L5.2 3L0 6L-5.2 3L-5.2 -3Z" fill="none" stroke="#ffffff" stroke-width="2"></path></g><g transform="translate(212 101)"><path d="M0 -23L19.9 -11.5L19.9 11.5L0 23L-19.9 11.5L-19.9 -11.5Z" fill="none" stroke="#ffffff" stroke-width="2"></path></g><g transform="translate(807 107)"><path d="M0 -21L18.2 -10.5L18.2 10.5L0 21L-18.2 10.5L-18.2 -10.5Z" fill="none" stroke="#ffffff" stroke-width="2"></path></g><g transform="translate(364 191)"><path d="M0 -17L14.7 -8.5L14.7 8.5L0 17L-14.7 8.5L-14.7 -8.5Z" fill="none" stroke="#ffffff" stroke-width="2"></path></g><g transform="translate(233 474)"><path d="M0 -12L10.4 -6L10.4 6L0 12L-10.4 6L-10.4 -6Z" fill="none" stroke="#ffffff" stroke-width="2"></path></g><g transform="translate(890 597)"><path d="M0 -21L18.2 -10.5L18.2 10.5L0 21L-18.2 10.5L-18.2 -10.5Z" fill="none" stroke="#ffffff" stroke-width="2"></path></g><g transform="translate(420 383)"><path d="M0 -23L19.9 -11.5L19.9 11.5L0 23L-19.9 11.5L-19.9 -11.5Z" fill="none" stroke="#ffffff" stroke-width="2"></path></g><g transform="translate(76 233)"><path d="M0 -16L13.9 -8L13.9 8L0 16L-13.9 8L-13.9 -8Z" fill="none" stroke="#ffffff" stroke-width="2"></path></g><g transform="translate(184 6)"><path d="M0 -16L13.9 -8L13.9 8L0 16L-13.9 8L-13.9 -8Z" fill="none" stroke="#ffffff" stroke-width="2"></path></g><g transform="translate(419 519)"><path d="M0 -15L13 -7.5L13 7.5L0 15L-13 7.5L-13 -7.5Z" fill="none" stroke="#ffffff" stroke-width="2"></path></g><g transform="translate(334 309)"><path d="M0 -18L15.6 -9L15.6 9L0 18L-15.6 9L-15.6 -9Z" fill="none" stroke="#ffffff" stroke-width="2"></path></g><g transform="translate(453 124)"><path d="M0 -10L8.7 -5L8.7 5L0 10L-8.7 5L-8.7 -5Z" fill="none" stroke="#ffffff" stroke-width="2"></path></g><g transform="translate(1 114)"><path d="M0 -22L19.1 -11L19.1 11L0 22L-19.1 11L-19.1 -11Z" fill="none" stroke="#ffffff" stroke-width="2"></path></g><g transform="translate(742 498)"><path d="M0 -13L11.3 -6.5L11.3 6.5L0 13L-11.3 6.5L-11.3 -6.5Z" fill="none" stroke="#ffffff" stroke-width="2"></path></g><g transform="translate(124 1)"><path d="M0 -10L8.7 -5L8.7 5L0 10L-8.7 5L-8.7 -5Z" fill="none" stroke="#ffffff" stroke-width="2"></path></g><g transform="translate(152 292)"><path d="M0 -5L4.3 -2.5L4.3 2.5L0 5L-4.3 2.5L-4.3 -2.5Z" fill="none" stroke="#ffffff" stroke-width="2"></path></g><g transform="translate(626 183)"><path d="M0 -22L19.1 -11L19.1 11L0 22L-19.1 11L-19.1 -11Z" fill="none" stroke="#ffffff" stroke-width="2"></path></g><g transform="translate(95 52)"><path d="M0 -6L5.2 -3L5.2 3L0 6L-5.2 3L-5.2 -3Z" fill="none" stroke="#ffffff" stroke-width="2"></path></g></g></svg>