<svg id="visual" viewBox="0 0 900 600" width="900" height="600" xmlns="http://www.w3.org/2000/svg" xmlns:xlink="http://www.w3.org/1999/xlink" version="1.1"><rect width="900" height="600" fill="#001829"></rect><g><g transform="translate(531 571)"><path d="M0 -13.1L9.3 -9.3L13.1 0L9.3 9.3L0 13.1L-9.3 9.3L-13.1 0L-9.3 -9.3Z" fill="#297EA6"></path></g><g transform="translate(616 309)"><path d="M0 -4L2.8 -2.8L4 0L2.8 2.8L0 4L-2.8 2.8L-4 0L-2.8 -2.8Z" fill="#297EA6"></path></g><g transform="translate(360 310)"><path d="M0 -7L4.9 -4.9L7 0L4.9 4.9L0 7L-4.9 4.9L-7 0L-4.9 -4.9Z" fill="#297EA6"></path></g><g transform="translate(523 123)"><path d="M0 -12L8.5 -8.5L12 0L8.5 8.5L0 12L-8.5 8.5L-12 0L-8.5 -8.5Z" fill="#297EA6"></path></g><g transform="translate(730 543)"><path d="M0 -3L2.1 -2.1L3 0L2.1 2.1L0 3L-2.1 2.1L-3 0L-2.1 -2.1Z" fill="#297EA6"></path></g><g transform="translate(658 553)"><path d="M0 -2L1.4 -1.4L2 0L1.4 1.4L0 2L-1.4 1.4L-2 0L-1.4 -1.4Z" fill="#297EA6"></path></g><g transform="translate(775 313)"><path d="M0 -1L0.7 -0.7L1 0L0.7 0.7L0 1L-0.7 0.7L-1 0L-0.7 -0.7Z" fill="#297EA6"></path></g><g transform="translate(125 221)"><path d="M0 -1L0.7 -0.7L1 0L0.7 0.7L0 1L-0.7 0.7L-1 0L-0.7 -0.7Z" fill="#297EA6"></path></g><g transform="translate(368 275)"><path d="M0 -9L6.4 -6.4L9 0L6.4 6.4L0 9L-6.4 6.4L-9 0L-6.4 -6.4Z" fill="#297EA6"></path></g><g transform="translate(455 413)"><path d="M0 -7L4.9 -4.9L7 0L4.9 4.9L0 7L-4.9 4.9L-7 0L-4.9 -4.9Z" fill="#297EA6"></path></g><g transform="translate(246 144)"><path d="M0 -6L4.2 -4.2L6 0L4.2 4.2L0 6L-4.2 4.2L-6 0L-4.2 -4.2Z" fill="#297EA6"></path></g><g transform="translate(122 292)"><path d="M0 -8L5.7 -5.7L8 0L5.7 5.7L0 8L-5.7 5.7L-8 0L-5.7 -5.7Z" fill="#297EA6"></path></g><g transform="translate(485 252)"><path d="M0 -4L2.8 -2.8L4 0L2.8 2.8L0 4L-2.8 2.8L-4 0L-2.8 -2.8Z" fill="#297EA6"></path></g><g transform="translate(339 534)"><path d="M0 -8L5.7 -5.7L8 0L5.7 5.7L0 8L-5.7 5.7L-8 0L-5.7 -5.7Z" fill="#297EA6"></path></g><g transform="translate(239 79)"><path d="M0 -10L7.1 -7.1L10 0L7.1 7.1L0 10L-7.1 7.1L-10 0L-7.1 -7.1Z" fill="#297EA6"></path></g><g transform="translate(406 288)"><path d="M0 -11L7.8 -7.8L11 0L7.8 7.8L0 11L-7.8 7.8L-11 0L-7.8 -7.8Z" fill="#297EA6"></path></g><g transform="translate(287 59)"><path d="M0 -12L8.5 -8.5L12 0L8.5 8.5L0 12L-8.5 8.5L-12 0L-8.5 -8.5Z" fill="#297EA6"></path></g><g transform="translate(819 391)"><path d="M0 -6L4.2 -4.2L6 0L4.2 4.2L0 6L-4.2 4.2L-6 0L-4.2 -4.2Z" fill="#297EA6"></path></g><g transform="translate(838 193)"><path d="M0 -2L1.4 -1.4L2 0L1.4 1.4L0 2L-1.4 1.4L-2 0L-1.4 -1.4Z" fill="#297EA6"></path></g><g transform="translate(721 459)"><path d="M0 -8L5.7 -5.7L8 0L5.7 5.7L0 8L-5.7 5.7L-8 0L-5.7 -5.7Z" fill="#297EA6"></path></g><g transform="translate(649 412)"><path d="M0 -9L6.4 -6.4L9 0L6.4 6.4L0 9L-6.4 6.4L-9 0L-6.4 -6.4Z" fill="#297EA6"></path></g><g transform="translate(872 43)"><path d="M0 -9L6.4 -6.4L9 0L6.4 6.4L0 9L-6.4 6.4L-9 0L-6.4 -6.4Z" fill="#297EA6"></path></g><g transform="translate(211 580)"><path d="M0 -3L2.1 -2.1L3 0L2.1 2.1L0 3L-2.1 2.1L-3 0L-2.1 -2.1Z" fill="#297EA6"></path></g><g transform="translate(581 245)"><path d="M0 -8L5.7 -5.7L8 0L5.7 5.7L0 8L-5.7 5.7L-8 0L-5.7 -5.7Z" fill="#297EA6"></path></g><g transform="translate(138 85)"><path d="M0 -10L7.1 -7.1L10 0L7.1 7.1L0 10L-7.1 7.1L-10 0L-7.1 -7.1Z" fill="#297EA6"></path></g><g transform="translate(77 41)"><path d="M0 -1L0.7 -0.7L1 0L0.7 0.7L0 1L-0.7 0.7L-1 0L-0.7 -0.7Z" fill="#297EA6"></path></g><g transform="translate(741 208)"><path d="M0 -8L5.7 -5.7L8 0L5.7 5.7L0 8L-5.7 5.7L-8 0L-5.7 -5.7Z" fill="#297EA6"></path></g><g transform="translate(216 538)"><path d="M0 -5L3.5 -3.5L5 0L3.5 3.5L0 5L-3.5 3.5L-5 0L-3.5 -3.5Z" fill="#297EA6"></path></g><g transform="translate(691 445)"><path d="M0 -5L3.5 -3.5L5 0L3.5 3.5L0 5L-3.5 3.5L-5 0L-3.5 -3.5Z" fill="#297EA6"></path></g><g transform="translate(567 406)"><path d="M0 -8L5.7 -5.7L8 0L5.7 5.7L0 8L-5.7 5.7L-8 0L-5.7 -5.7Z" fill="#297EA6"></path></g><g transform="translate(494 53)"><path d="M0 -6L4.2 -4.2L6 0L4.2 4.2L0 6L-4.2 4.2L-6 0L-4.2 -4.2Z" fill="#297EA6"></path></g><g transform="translate(524 311)"><path d="M0 -3L2.1 -2.1L3 0L2.1 2.1L0 3L-2.1 2.1L-3 0L-2.1 -2.1Z" fill="#297EA6"></path></g><g transform="translate(171 17)"><path d="M0 -7L4.9 -4.9L7 0L4.9 4.9L0 7L-4.9 4.9L-7 0L-4.9 -4.9Z" fill="#297EA6"></path></g><g transform="translate(658 480)"><path d="M0 -4L2.8 -2.8L4 0L2.8 2.8L0 4L-2.8 2.8L-4 0L-2.8 -2.8Z" fill="#297EA6"></path></g><g transform="translate(812 505)"><path d="M0 -2L1.4 -1.4L2 0L1.4 1.4L0 2L-1.4 1.4L-2 0L-1.4 -1.4Z" fill="#297EA6"></path></g><g transform="translate(899 132)"><path d="M0 -10L7.1 -7.1L10 0L7.1 7.1L0 10L-7.1 7.1L-10 0L-7.1 -7.1Z" fill="#297EA6"></path></g><g transform="translate(240 424)"><path d="M0 -3L2.1 -2.1L3 0L2.1 2.1L0 3L-2.1 2.1L-3 0L-2.1 -2.1Z" fill="#297EA6"></path></g><g transform="translate(882 506)"><path d="M0 -2L1.4 -1.4L2 0L1.4 1.4L0 2L-1.4 1.4L-2 0L-1.4 -1.4Z" fill="#297EA6"></path></g><g transform="translate(423 81)"><path d="M0 -1L0.7 -0.7L1 0L0.7 0.7L0 1L-0.7 0.7L-1 0L-0.7 -0.7Z" fill="#297EA6"></path></g><g transform="translate(644 184)"><path d="M0 -6L4.2 -4.2L6 0L4.2 4.2L0 6L-4.2 4.2L-6 0L-4.2 -4.2Z" fill="#297EA6"></path></g><g transform="translate(616 247)"><path d="M0 -1L0.7 -0.7L1 0L0.7 0.7L0 1L-0.7 0.7L-1 0L-0.7 -0.7Z" fill="#297EA6"></path></g><g transform="translate(195 511)"><path d="M0 -5L3.5 -3.5L5 0L3.5 3.5L0 5L-3.5 3.5L-5 0L-3.5 -3.5Z" fill="#297EA6"></path></g><g transform="translate(849 453)"><path d="M0 -3L2.1 -2.1L3 0L2.1 2.1L0 3L-2.1 2.1L-3 0L-2.1 -2.1Z" fill="#297EA6"></path></g><g transform="translate(64 287)"><path d="M0 -12L8.5 -8.5L12 0L8.5 8.5L0 12L-8.5 8.5L-12 0L-8.5 -8.5Z" fill="#297EA6"></path></g><g transform="translate(205 113)"><path d="M0 -7L4.9 -4.9L7 0L4.9 4.9L0 7L-4.9 4.9L-7 0L-4.9 -4.9Z" fill="#297EA6"></path></g><g transform="translate(329 508)"><path d="M0 -7L4.9 -4.9L7 0L4.9 4.9L0 7L-4.9 4.9L-7 0L-4.9 -4.9Z" fill="#297EA6"></path></g><g transform="translate(124 163)"><path d="M0 -7L4.9 -4.9L7 0L4.9 4.9L0 7L-4.9 4.9L-7 0L-4.9 -4.9Z" fill="#297EA6"></path></g><g transform="translate(130 320)"><path d="M0 -6L4.2 -4.2L6 0L4.2 4.2L0 6L-4.2 4.2L-6 0L-4.2 -4.2Z" fill="#297EA6"></path></g><g transform="translate(460 12)"><path d="M0 -3L2.1 -2.1L3 0L2.1 2.1L0 3L-2.1 2.1L-3 0L-2.1 -2.1Z" fill="#297EA6"></path></g><g transform="translate(90 274)"><path d="M0 -2L1.4 -1.4L2 0L1.4 1.4L0 2L-1.4 1.4L-2 0L-1.4 -1.4Z" fill="#297EA6"></path></g><g transform="translate(655 31)"><path d="M0 -10L7.1 -7.1L10 0L7.1 7.1L0 10L-7.1 7.1L-10 0L-7.1 -7.1Z" fill="#297EA6"></path></g><g transform="translate(33 142)"><path d="M0 -7L4.9 -4.9L7 0L4.9 4.9L0 7L-4.9 4.9L-7 0L-4.9 -4.9Z" fill="#297EA6"></path></g><g transform="translate(813 158)"><path d="M0 -6L4.2 -4.2L6 0L4.2 4.2L0 6L-4.2 4.2L-6 0L-4.2 -4.2Z" fill="#297EA6"></path></g><g transform="translate(466 495)"><path d="M0 -8L5.7 -5.7L8 0L5.7 5.7L0 8L-5.7 5.7L-8 0L-5.7 -5.7Z" fill="#297EA6"></path></g><g transform="translate(484 532)"><path d="M0 -9L6.4 -6.4L9 0L6.4 6.4L0 9L-6.4 6.4L-9 0L-6.4 -6.4Z" fill="#297EA6"></path></g><g transform="translate(831 245)"><path d="M0 -6L4.2 -4.2L6 0L4.2 4.2L0 6L-4.2 4.2L-6 0L-4.2 -4.2Z" fill="#297EA6"></path></g><g transform="translate(727 55)"><path d="M0 -4L2.8 -2.8L4 0L2.8 2.8L0 4L-2.8 2.8L-4 0L-2.8 -2.8Z" fill="#297EA6"></path></g><g transform="translate(526 354)"><path d="M0 -11L7.8 -7.8L11 0L7.8 7.8L0 11L-7.8 7.8L-11 0L-7.8 -7.8Z" fill="#297EA6"></path></g><g transform="translate(245 216)"><path d="M0 -5L3.5 -3.5L5 0L3.5 3.5L0 5L-3.5 3.5L-5 0L-3.5 -3.5Z" fill="#297EA6"></path></g><g transform="translate(622 536)"><path d="M0 -8L5.7 -5.7L8 0L5.7 5.7L0 8L-5.7 5.7L-8 0L-5.7 -5.7Z" fill="#297EA6"></path></g><g transform="translate(510 262)"><path d="M0 -1L0.7 -0.7L1 0L0.7 0.7L0 1L-0.7 0.7L-1 0L-0.7 -0.7Z" fill="#297EA6"></path></g><g transform="translate(675 257)"><path d="M0 -6L4.2 -4.2L6 0L4.2 4.2L0 6L-4.2 4.2L-6 0L-4.2 -4.2Z" fill="#297EA6"></path></g><g transform="translate(245 309)"><path d="M0 -9L6.4 -6.4L9 0L6.4 6.4L0 9L-6.4 6.4L-9 0L-6.4 -6.4Z" fill="#297EA6"></path></g><g transform="translate(616 452)"><path d="M0 -3L2.1 -2.1L3 0L2.1 2.1L0 3L-2.1 2.1L-3 0L-2.1 -2.1Z" fill="#297EA6"></path></g><g transform="translate(392 138)"><path d="M0 -4L2.8 -2.8L4 0L2.8 2.8L0 4L-2.8 2.8L-4 0L-2.8 -2.8Z" fill="#297EA6"></path></g><g transform="translate(330 453)"><path d="M0 -1L0.7 -0.7L1 0L0.7 0.7L0 1L-0.7 0.7L-1 0L-0.7 -0.7Z" fill="#297EA6"></path></g><g transform="translate(811 78)"><path d="M0 -8L5.7 -5.7L8 0L5.7 5.7L0 8L-5.7 5.7L-8 0L-5.7 -5.7Z" fill="#297EA6"></path></g><g transform="translate(212 20)"><path d="M0 -10L7.1 -7.1L10 0L7.1 7.1L0 10L-7.1 7.1L-10 0L-7.1 -7.1Z" fill="#297EA6"></path></g><g transform="translate(372 247)"><path d="M0 -4L2.8 -2.8L4 0L2.8 2.8L0 4L-2.8 2.8L-4 0L-2.8 -2.8Z" fill="#297EA6"></path></g><g transform="translate(551 35)"><path d="M0 -7L4.9 -4.9L7 0L4.9 4.9L0 7L-4.9 4.9L-7 0L-4.9 -4.9Z" fill="#297EA6"></path></g><g transform="translate(62 369)"><path d="M0 -4L2.8 -2.8L4 0L2.8 2.8L0 4L-2.8 2.8L-4 0L-2.8 -2.8Z" fill="#297EA6"></path></g><g transform="translate(549 241)"><path d="M0 -7L4.9 -4.9L7 0L4.9 4.9L0 7L-4.9 4.9L-7 0L-4.9 -4.9Z" fill="#297EA6"></path></g><g transform="translate(456 442)"><path d="M0 -12L8.5 -8.5L12 0L8.5 8.5L0 12L-8.5 8.5L-12 0L-8.5 -8.5Z" fill="#297EA6"></path></g><g transform="translate(695 353)"><path d="M0 -1L0.7 -0.7L1 0L0.7 0.7L0 1L-0.7 0.7L-1 0L-0.7 -0.7Z" fill="#297EA6"></path></g><g transform="translate(440 56)"><path d="M0 -10L7.1 -7.1L10 0L7.1 7.1L0 10L-7.1 7.1L-10 0L-7.1 -7.1Z" fill="#297EA6"></path></g><g transform="translate(254 262)"><path d="M0 -3L2.1 -2.1L3 0L2.1 2.1L0 3L-2.1 2.1L-3 0L-2.1 -2.1Z" fill="#297EA6"></path></g><g transform="translate(406 332)"><path d="M0 -3L2.1 -2.1L3 0L2.1 2.1L0 3L-2.1 2.1L-3 0L-2.1 -2.1Z" fill="#297EA6"></path></g><g transform="translate(778 346)"><path d="M0 -10L7.1 -7.1L10 0L7.1 7.1L0 10L-7.1 7.1L-10 0L-7.1 -7.1Z" fill="#297EA6"></path></g><g transform="translate(810 199)"><path d="M0 -3L2.1 -2.1L3 0L2.1 2.1L0 3L-2.1 2.1L-3 0L-2.1 -2.1Z" fill="#297EA6"></path></g><g transform="translate(394 53)"><path d="M0 -6L4.2 -4.2L6 0L4.2 4.2L0 6L-4.2 4.2L-6 0L-4.2 -4.2Z" fill="#297EA6"></path></g><g transform="translate(59 189)"><path d="M0 -6L4.2 -4.2L6 0L4.2 4.2L0 6L-4.2 4.2L-6 0L-4.2 -4.2Z" fill="#297EA6"></path></g><g transform="translate(195 78)"><path d="M0 -9L6.4 -6.4L9 0L6.4 6.4L0 9L-6.4 6.4L-9 0L-6.4 -6.4Z" fill="#297EA6"></path></g><g transform="translate(229 345)"><path d="M0 -4L2.8 -2.8L4 0L2.8 2.8L0 4L-2.8 2.8L-4 0L-2.8 -2.8Z" fill="#297EA6"></path></g><g transform="translate(242 19)"><path d="M0 -6L4.2 -4.2L6 0L4.2 4.2L0 6L-4.2 4.2L-6 0L-4.2 -4.2Z" fill="#297EA6"></path></g><g transform="translate(469 80)"><path d="M0 -9L6.4 -6.4L9 0L6.4 6.4L0 9L-6.4 6.4L-9 0L-6.4 -6.4Z" fill="#297EA6"></path></g><g transform="translate(204 292)"><path d="M0 -3L2.1 -2.1L3 0L2.1 2.1L0 3L-2.1 2.1L-3 0L-2.1 -2.1Z" fill="#297EA6"></path></g><g transform="translate(606 493)"><path d="M0 -4L2.8 -2.8L4 0L2.8 2.8L0 4L-2.8 2.8L-4 0L-2.8 -2.8Z" fill="#297EA6"></path></g><g transform="translate(372 452)"><path d="M0 -5L3.5 -3.5L5 0L3.5 3.5L0 5L-3.5 3.5L-5 0L-3.5 -3.5Z" fill="#297EA6"></path></g><g transform="translate(103 541)"><path d="M0 -7L4.9 -4.9L7 0L4.9 4.9L0 7L-4.9 4.9L-7 0L-4.9 -4.9Z" fill="#297EA6"></path></g><g transform="translate(646 348)"><path d="M0 -12L8.5 -8.5L12 0L8.5 8.5L0 12L-8.5 8.5L-12 0L-8.5 -8.5Z" fill="#297EA6"></path></g><g transform="translate(562 83)"><path d="M0 -11L7.8 -7.8L11 0L7.8 7.8L0 11L-7.8 7.8L-11 0L-7.8 -7.8Z" fill="#297EA6"></path></g><g transform="translate(481 332)"><path d="M0 -2L1.4 -1.4L2 0L1.4 1.4L0 2L-1.4 1.4L-2 0L-1.4 -1.4Z" fill="#297EA6"></path></g><g transform="translate(148 571)"><path d="M0 -3L2.1 -2.1L3 0L2.1 2.1L0 3L-2.1 2.1L-3 0L-2.1 -2.1Z" fill="#297EA6"></path></g><g transform="translate(95 322)"><path d="M0 -12L8.5 -8.5L12 0L8.5 8.5L0 12L-8.5 8.5L-12 0L-8.5 -8.5Z" fill="#297EA6"></path></g><g transform="translate(509 494)"><path d="M0 -7L4.9 -4.9L7 0L4.9 4.9L0 7L-4.9 4.9L-7 0L-4.9 -4.9Z" fill="#297EA6"></path></g><g transform="translate(700 301)"><path d="M0 -9L6.4 -6.4L9 0L6.4 6.4L0 9L-6.4 6.4L-9 0L-6.4 -6.4Z" fill="#297EA6"></path></g><g transform="translate(131 457)"><path d="M0 -6L4.2 -4.2L6 0L4.2 4.2L0 6L-4.2 4.2L-6 0L-4.2 -4.2Z" fill="#297EA6"></path></g><g transform="translate(101 584)"><path d="M0 -11L7.8 -7.8L11 0L7.8 7.8L0 11L-7.8 7.8L-11 0L-7.8 -7.8Z" fill="#297EA6"></path></g><g transform="translate(11 375)"><path d="M0 -8L5.7 -5.7L8 0L5.7 5.7L0 8L-5.7 5.7L-8 0L-5.7 -5.7Z" fill="#297EA6"></path></g><g transform="translate(689 410)"><path d="M0 -3L2.1 -2.1L3 0L2.1 2.1L0 3L-2.1 2.1L-3 0L-2.1 -2.1Z" fill="#297EA6"></path></g><g transform="translate(503 4)"><path d="M0 -10L7.1 -7.1L10 0L7.1 7.1L0 10L-7.1 7.1L-10 0L-7.1 -7.1Z" fill="#297EA6"></path></g><g transform="translate(126 248)"><path d="M0 -4L2.8 -2.8L4 0L2.8 2.8L0 4L-2.8 2.8L-4 0L-2.8 -2.8Z" fill="#297EA6"></path></g><g transform="translate(110 402)"><path d="M0 -5L3.5 -3.5L5 0L3.5 3.5L0 5L-3.5 3.5L-5 0L-3.5 -3.5Z" fill="#297EA6"></path></g><g transform="translate(40 258)"><path d="M0 -12L8.5 -8.5L12 0L8.5 8.5L0 12L-8.5 8.5L-12 0L-8.5 -8.5Z" fill="#297EA6"></path></g><g transform="translate(13 51)"><path d="M0 -8L5.7 -5.7L8 0L5.7 5.7L0 8L-5.7 5.7L-8 0L-5.7 -5.7Z" fill="#297EA6"></path></g><g transform="translate(231 43)"><path d="M0 -2L1.4 -1.4L2 0L1.4 1.4L0 2L-1.4 1.4L-2 0L-1.4 -1.4Z" fill="#297EA6"></path></g><g transform="translate(297 153)"><path d="M0 -4L2.8 -2.8L4 0L2.8 2.8L0 4L-2.8 2.8L-4 0L-2.8 -2.8Z" fill="#297EA6"></path></g><g transform="translate(897 562)"><path d="M0 -10L7.1 -7.1L10 0L7.1 7.1L0 10L-7.1 7.1L-10 0L-7.1 -7.1Z" fill="#297EA6"></path></g><g transform="translate(544 477)"><path d="M0 -9L6.4 -6.4L9 0L6.4 6.4L0 9L-6.4 6.4L-9 0L-6.4 -6.4Z" fill="#297EA6"></path></g><g transform="translate(131 513)"><path d="M0 -2L1.4 -1.4L2 0L1.4 1.4L0 2L-1.4 1.4L-2 0L-1.4 -1.4Z" fill="#297EA6"></path></g><g transform="translate(605 74)"><path d="M0 -9L6.4 -6.4L9 0L6.4 6.4L0 9L-6.4 6.4L-9 0L-6.4 -6.4Z" fill="#297EA6"></path></g><g transform="translate(211 476)"><path d="M0 -4L2.8 -2.8L4 0L2.8 2.8L0 4L-2.8 2.8L-4 0L-2.8 -2.8Z" fill="#297EA6"></path></g><g transform="translate(850 15)"><path d="M0 -1L0.7 -0.7L1 0L0.7 0.7L0 1L-0.7 0.7L-1 0L-0.7 -0.7Z" fill="#297EA6"></path></g><g transform="translate(736 575)"><path d="M0 -10L7.1 -7.1L10 0L7.1 7.1L0 10L-7.1 7.1L-10 0L-7.1 -7.1Z" fill="#297EA6"></path></g><g transform="translate(386 353)"><path d="M0 -7L4.9 -4.9L7 0L4.9 4.9L0 7L-4.9 4.9L-7 0L-4.9 -4.9Z" fill="#297EA6"></path></g><g transform="translate(711 181)"><path d="M0 -11L7.8 -7.8L11 0L7.8 7.8L0 11L-7.8 7.8L-11 0L-7.8 -7.8Z" fill="#297EA6"></path></g><g transform="translate(312 550)"><path d="M0 -10L7.1 -7.1L10 0L7.1 7.1L0 10L-7.1 7.1L-10 0L-7.1 -7.1Z" fill="#297EA6"></path></g><g transform="translate(597 32)"><path d="M0 -4L2.8 -2.8L4 0L2.8 2.8L0 4L-2.8 2.8L-4 0L-2.8 -2.8Z" fill="#297EA6"></path></g><g transform="translate(438 170)"><path d="M0 -4L2.8 -2.8L4 0L2.8 2.8L0 4L-2.8 2.8L-4 0L-2.8 -2.8Z" fill="#297EA6"></path></g><g transform="translate(558 168)"><path d="M0 -3L2.1 -2.1L3 0L2.1 2.1L0 3L-2.1 2.1L-3 0L-2.1 -2.1Z" fill="#297EA6"></path></g><g transform="translate(246 182)"><path d="M0 -4L2.8 -2.8L4 0L2.8 2.8L0 4L-2.8 2.8L-4 0L-2.8 -2.8Z" fill="#297EA6"></path></g><g transform="translate(510 541)"><path d="M0 -1L0.7 -0.7L1 0L0.7 0.7L0 1L-0.7 0.7L-1 0L-0.7 -0.7Z" fill="#297EA6"></path></g><g transform="translate(407 252)"><path d="M0 -8L5.7 -5.7L8 0L5.7 5.7L0 8L-5.7 5.7L-8 0L-5.7 -5.7Z" fill="#297EA6"></path></g><g transform="translate(7 111)"><path d="M0 -1L0.7 -0.7L1 0L0.7 0.7L0 1L-0.7 0.7L-1 0L-0.7 -0.7Z" fill="#297EA6"></path></g><g transform="translate(207 446)"><path d="M0 -12L8.5 -8.5L12 0L8.5 8.5L0 12L-8.5 8.5L-12 0L-8.5 -8.5Z" fill="#297EA6"></path></g><g transform="translate(573 376)"><path d="M0 -4L2.8 -2.8L4 0L2.8 2.8L0 4L-2.8 2.8L-4 0L-2.8 -2.8Z" fill="#297EA6"></path></g><g transform="translate(642 580)"><path d="M0 -7L4.9 -4.9L7 0L4.9 4.9L0 7L-4.9 4.9L-7 0L-4.9 -4.9Z" fill="#297EA6"></path></g><g transform="translate(323 115)"><path d="M0 -12L8.5 -8.5L12 0L8.5 8.5L0 12L-8.5 8.5L-12 0L-8.5 -8.5Z" fill="#297EA6"></path></g><g transform="translate(786 380)"><path d="M0 -8L5.7 -5.7L8 0L5.7 5.7L0 8L-5.7 5.7L-8 0L-5.7 -5.7Z" fill="#297EA6"></path></g><g transform="translate(400 479)"><path d="M0 -5L3.5 -3.5L5 0L3.5 3.5L0 5L-3.5 3.5L-5 0L-3.5 -3.5Z" fill="#297EA6"></path></g><g transform="translate(668 86)"><path d="M0 -4L2.8 -2.8L4 0L2.8 2.8L0 4L-2.8 2.8L-4 0L-2.8 -2.8Z" fill="#297EA6"></path></g><g transform="translate(356 581)"><path d="M0 -4L2.8 -2.8L4 0L2.8 2.8L0 4L-2.8 2.8L-4 0L-2.8 -2.8Z" fill="#297EA6"></path></g><g transform="translate(723 342)"><path d="M0 -11L7.8 -7.8L11 0L7.8 7.8L0 11L-7.8 7.8L-11 0L-7.8 -7.8Z" fill="#297EA6"></path></g><g transform="translate(822 298)"><path d="M0 -2L1.4 -1.4L2 0L1.4 1.4L0 2L-1.4 1.4L-2 0L-1.4 -1.4Z" fill="#297EA6"></path></g><g transform="translate(26 179)"><path d="M0 -8L5.7 -5.7L8 0L5.7 5.7L0 8L-5.7 5.7L-8 0L-5.7 -5.7Z" fill="#297EA6"></path></g><g transform="translate(36 547)"><path d="M0 -2L1.4 -1.4L2 0L1.4 1.4L0 2L-1.4 1.4L-2 0L-1.4 -1.4Z" fill="#297EA6"></path></g><g transform="translate(251 560)"><path d="M0 -3L2.1 -2.1L3 0L2.1 2.1L0 3L-2.1 2.1L-3 0L-2.1 -2.1Z" fill="#297EA6"></path></g><g transform="translate(815 560)"><path d="M0 -5L3.5 -3.5L5 0L3.5 3.5L0 5L-3.5 3.5L-5 0L-3.5 -3.5Z" fill="#297EA6"></path></g><g transform="translate(798 25)"><path d="M0 -10L7.1 -7.1L10 0L7.1 7.1L0 10L-7.1 7.1L-10 0L-7.1 -7.1Z" fill="#297EA6"></path></g><g transform="translate(613 182)"><path d="M0 -8L5.7 -5.7L8 0L5.7 5.7L0 8L-5.7 5.7L-8 0L-5.7 -5.7Z" fill="#297EA6"></path></g><g transform="translate(182 392)"><path d="M0 -12L8.5 -8.5L12 0L8.5 8.5L0 12L-8.5 8.5L-12 0L-8.5 -8.5Z" fill="#297EA6"></path></g><g transform="translate(205 205)"><path d="M0 -6L4.2 -4.2L6 0L4.2 4.2L0 6L-4.2 4.2L-6 0L-4.2 -4.2Z" fill="#297EA6"></path></g><g transform="translate(240 479)"><path d="M0 -11L7.8 -7.8L11 0L7.8 7.8L0 11L-7.8 7.8L-11 0L-7.8 -7.8Z" fill="#297EA6"></path></g><g transform="translate(774 232)"><path d="M0 -9L6.4 -6.4L9 0L6.4 6.4L0 9L-6.4 6.4L-9 0L-6.4 -6.4Z" fill="#297EA6"></path></g><g transform="translate(267 453)"><path d="M0 -11L7.8 -7.8L11 0L7.8 7.8L0 11L-7.8 7.8L-11 0L-7.8 -7.8Z" fill="#297EA6"></path></g><g transform="translate(44 12)"><path d="M0 -10L7.1 -7.1L10 0L7.1 7.1L0 10L-7.1 7.1L-10 0L-7.1 -7.1Z" fill="#297EA6"></path></g><g transform="translate(820 348)"><path d="M0 -1L0.7 -0.7L1 0L0.7 0.7L0 1L-0.7 0.7L-1 0L-0.7 -0.7Z" fill="#297EA6"></path></g><g transform="translate(884 283)"><path d="M0 -5L3.5 -3.5L5 0L3.5 3.5L0 5L-3.5 3.5L-5 0L-3.5 -3.5Z" fill="#297EA6"></path></g><g transform="translate(583 126)"><path d="M0 -7L4.9 -4.9L7 0L4.9 4.9L0 7L-4.9 4.9L-7 0L-4.9 -4.9Z" fill="#297EA6"></path></g><g transform="translate(156 294)"><path d="M0 -9L6.4 -6.4L9 0L6.4 6.4L0 9L-6.4 6.4L-9 0L-6.4 -6.4Z" fill="#297EA6"></path></g><g transform="translate(826 529)"><path d="M0 -10L7.1 -7.1L10 0L7.1 7.1L0 10L-7.1 7.1L-10 0L-7.1 -7.1Z" fill="#297EA6"></path></g><g transform="translate(454 521)"><path d="M0 -3L2.1 -2.1L3 0L2.1 2.1L0 3L-2.1 2.1L-3 0L-2.1 -2.1Z" fill="#297EA6"></path></g><g transform="translate(780 205)"><path d="M0 -9L6.4 -6.4L9 0L6.4 6.4L0 9L-6.4 6.4L-9 0L-6.4 -6.4Z" fill="#297EA6"></path></g><g transform="translate(158 232)"><path d="M0 -8L5.7 -5.7L8 0L5.7 5.7L0 8L-5.7 5.7L-8 0L-5.7 -5.7Z" fill="#297EA6"></path></g><g transform="translate(781 276)"><path d="M0 -8L5.7 -5.7L8 0L5.7 5.7L0 8L-5.7 5.7L-8 0L-5.7 -5.7Z" fill="#297EA6"></path></g><g transform="translate(794 176)"><path d="M0 -12L8.5 -8.5L12 0L8.5 8.5L0 12L-8.5 8.5L-12 0L-8.5 -8.5Z" fill="#297EA6"></path></g><g transform="translate(868 416)"><path d="M0 -2L1.4 -1.4L2 0L1.4 1.4L0 2L-1.4 1.4L-2 0L-1.4 -1.4Z" fill="#297EA6"></path></g><g transform="translate(324 175)"><path d="M0 -11L7.8 -7.8L11 0L7.8 7.8L0 11L-7.8 7.8L-11 0L-7.8 -7.8Z" fill="#297EA6"></path></g><g transform="translate(176 587)"><path d="M0 -9L6.4 -6.4L9 0L6.4 6.4L0 9L-6.4 6.4L-9 0L-6.4 -6.4Z" fill="#297EA6"></path></g><g transform="translate(593 568)"><path d="M0 -12L8.5 -8.5L12 0L8.5 8.5L0 12L-8.5 8.5L-12 0L-8.5 -8.5Z" fill="#297EA6"></path></g><g transform="translate(334 38)"><path d="M0 -12L8.5 -8.5L12 0L8.5 8.5L0 12L-8.5 8.5L-12 0L-8.5 -8.5Z" fill="#297EA6"></path></g><g transform="translate(226 250)"><path d="M0 -8L5.7 -5.7L8 0L5.7 5.7L0 8L-5.7 5.7L-8 0L-5.7 -5.7Z" fill="#297EA6"></path></g><g transform="translate(860 259)"><path d="M0 -9L6.4 -6.4L9 0L6.4 6.4L0 9L-6.4 6.4L-9 0L-6.4 -6.4Z" fill="#297EA6"></path></g><g transform="translate(441 587)"><path d="M0 -1L0.7 -0.7L1 0L0.7 0.7L0 1L-0.7 0.7L-1 0L-0.7 -0.7Z" fill="#297EA6"></path></g><g transform="translate(764 514)"><path d="M0 -10L7.1 -7.1L10 0L7.1 7.1L0 10L-7.1 7.1L-10 0L-7.1 -7.1Z" fill="#297EA6"></path></g><g transform="translate(301 339)"><path d="M0 -4L2.8 -2.8L4 0L2.8 2.8L0 4L-2.8 2.8L-4 0L-2.8 -2.8Z" fill="#297EA6"></path></g><g transform="translate(315 229)"><path d="M0 -3L2.1 -2.1L3 0L2.1 2.1L0 3L-2.1 2.1L-3 0L-2.1 -2.1Z" fill="#297EA6"></path></g><g transform="translate(95 169)"><path d="M0 -6L4.2 -4.2L6 0L4.2 4.2L0 6L-4.2 4.2L-6 0L-4.2 -4.2Z" fill="#297EA6"></path></g><g transform="translate(312 21)"><path d="M0 -12L8.5 -8.5L12 0L8.5 8.5L0 12L-8.5 8.5L-12 0L-8.5 -8.5Z" fill="#297EA6"></path></g><g transform="translate(474 591)"><path d="M0 -9L6.4 -6.4L9 0L6.4 6.4L0 9L-6.4 6.4L-9 0L-6.4 -6.4Z" fill="#297EA6"></path></g><g transform="translate(491 117)"><path d="M0 -8L5.7 -5.7L8 0L5.7 5.7L0 8L-5.7 5.7L-8 0L-5.7 -5.7Z" fill="#297EA6"></path></g><g transform="translate(102 448)"><path d="M0 -8L5.7 -5.7L8 0L5.7 5.7L0 8L-5.7 5.7L-8 0L-5.7 -5.7Z" fill="#297EA6"></path></g><g transform="translate(98 118)"><path d="M0 -5L3.5 -3.5L5 0L3.5 3.5L0 5L-3.5 3.5L-5 0L-3.5 -3.5Z" fill="#297EA6"></path></g><g transform="translate(680 222)"><path d="M0 -4L2.8 -2.8L4 0L2.8 2.8L0 4L-2.8 2.8L-4 0L-2.8 -2.8Z" fill="#297EA6"></path></g><g transform="translate(473 368)"><path d="M0 -12L8.5 -8.5L12 0L8.5 8.5L0 12L-8.5 8.5L-12 0L-8.5 -8.5Z" fill="#297EA6"></path></g><g transform="translate(570 54)"><path d="M0 -4L2.8 -2.8L4 0L2.8 2.8L0 4L-2.8 2.8L-4 0L-2.8 -2.8Z" fill="#297EA6"></path></g><g transform="translate(892 84)"><path d="M0 -3L2.1 -2.1L3 0L2.1 2.1L0 3L-2.1 2.1L-3 0L-2.1 -2.1Z" fill="#297EA6"></path></g><g transform="translate(637 279)"><path d="M0 -6L4.2 -4.2L6 0L4.2 4.2L0 6L-4.2 4.2L-6 0L-4.2 -4.2Z" fill="#297EA6"></path></g><g transform="translate(430 545)"><path d="M0 -6L4.2 -4.2L6 0L4.2 4.2L0 6L-4.2 4.2L-6 0L-4.2 -4.2Z" fill="#297EA6"></path></g><g transform="translate(2 207)"><path d="M0 -11L7.8 -7.8L11 0L7.8 7.8L0 11L-7.8 7.8L-11 0L-7.8 -7.8Z" fill="#297EA6"></path></g><g transform="translate(387 218)"><path d="M0 -12L8.5 -8.5L12 0L8.5 8.5L0 12L-8.5 8.5L-12 0L-8.5 -8.5Z" fill="#297EA6"></path></g><g transform="translate(481 561)"><path d="M0 -5L3.5 -3.5L5 0L3.5 3.5L0 5L-3.5 3.5L-5 0L-3.5 -3.5Z" fill="#297EA6"></path></g><g transform="translate(476 197)"><path d="M0 -11L7.8 -7.8L11 0L7.8 7.8L0 11L-7.8 7.8L-11 0L-7.8 -7.8Z" fill="#297EA6"></path></g><g transform="translate(482 163)"><path d="M0 -1L0.7 -0.7L1 0L0.7 0.7L0 1L-0.7 0.7L-1 0L-0.7 -0.7Z" fill="#297EA6"></path></g><g transform="translate(357 14)"><path d="M0 -4L2.8 -2.8L4 0L2.8 2.8L0 4L-2.8 2.8L-4 0L-2.8 -2.8Z" fill="#297EA6"></path></g><g transform="translate(69 537)"><path d="M0 -3L2.1 -2.1L3 0L2.1 2.1L0 3L-2.1 2.1L-3 0L-2.1 -2.1Z" fill="#297EA6"></path></g><g transform="translate(712 566)"><path d="M0 -8L5.7 -5.7L8 0L5.7 5.7L0 8L-5.7 5.7L-8 0L-5.7 -5.7Z" fill="#297EA6"></path></g><g transform="translate(11 587)"><path d="M0 -4L2.8 -2.8L4 0L2.8 2.8L0 4L-2.8 2.8L-4 0L-2.8 -2.8Z" fill="#297EA6"></path></g><g transform="translate(561 337)"><path d="M0 -2L1.4 -1.4L2 0L1.4 1.4L0 2L-1.4 1.4L-2 0L-1.4 -1.4Z" fill="#297EA6"></path></g><g transform="translate(433 372)"><path d="M0 -7L4.9 -4.9L7 0L4.9 4.9L0 7L-4.9 4.9L-7 0L-4.9 -4.9Z" fill="#297EA6"></path></g><g transform="translate(185 553)"><path d="M0 -10L7.1 -7.1L10 0L7.1 7.1L0 10L-7.1 7.1L-10 0L-7.1 -7.1Z" fill="#297EA6"></path></g><g transform="translate(715 594)"><path d="M0 -4L2.8 -2.8L4 0L2.8 2.8L0 4L-2.8 2.8L-4 0L-2.8 -2.8Z" fill="#297EA6"></path></g><g transform="translate(202 352)"><path d="M0 -12L8.5 -8.5L12 0L8.5 8.5L0 12L-8.5 8.5L-12 0L-8.5 -8.5Z" fill="#297EA6"></path></g><g transform="translate(731 372)"><path d="M0 -3L2.1 -2.1L3 0L2.1 2.1L0 3L-2.1 2.1L-3 0L-2.1 -2.1Z" fill="#297EA6"></path></g><g transform="translate(177 334)"><path d="M0 -10L7.1 -7.1L10 0L7.1 7.1L0 10L-7.1 7.1L-10 0L-7.1 -7.1Z" fill="#297EA6"></path></g><g transform="translate(338 336)"><path d="M0 -4L2.8 -2.8L4 0L2.8 2.8L0 4L-2.8 2.8L-4 0L-2.8 -2.8Z" fill="#297EA6"></path></g><g transform="translate(426 228)"><path d="M0 -2L1.4 -1.4L2 0L1.4 1.4L0 2L-1.4 1.4L-2 0L-1.4 -1.4Z" fill="#297EA6"></path></g><g transform="translate(303 85)"><path d="M0 -6L4.2 -4.2L6 0L4.2 4.2L0 6L-4.2 4.2L-6 0L-4.2 -4.2Z" fill="#297EA6"></path></g><g transform="translate(331 305)"><path d="M0 -2L1.4 -1.4L2 0L1.4 1.4L0 2L-1.4 1.4L-2 0L-1.4 -1.4Z" fill="#297EA6"></path></g><g transform="translate(853 573)"><path d="M0 -3L2.1 -2.1L3 0L2.1 2.1L0 3L-2.1 2.1L-3 0L-2.1 -2.1Z" fill="#297EA6"></path></g><g transform="translate(648 151)"><path d="M0 -11L7.8 -7.8L11 0L7.8 7.8L0 11L-7.8 7.8L-11 0L-7.8 -7.8Z" fill="#297EA6"></path></g><g transform="translate(648 378)"><path d="M0 -2L1.4 -1.4L2 0L1.4 1.4L0 2L-1.4 1.4L-2 0L-1.4 -1.4Z" fill="#297EA6"></path></g><g transform="translate(94 212)"><path d="M0 -3L2.1 -2.1L3 0L2.1 2.1L0 3L-2.1 2.1L-3 0L-2.1 -2.1Z" fill="#297EA6"></path></g><g transform="translate(363 201)"><path d="M0 -10L7.1 -7.1L10 0L7.1 7.1L0 10L-7.1 7.1L-10 0L-7.1 -7.1Z" fill="#297EA6"></path></g><g transform="translate(684 514)"><path d="M0 -11L7.8 -7.8L11 0L7.8 7.8L0 11L-7.8 7.8L-11 0L-7.8 -7.8Z" fill="#297EA6"></path></g><g transform="translate(898 26)"><path d="M0 -6L4.2 -4.2L6 0L4.2 4.2L0 6L-4.2 4.2L-6 0L-4.2 -4.2Z" fill="#297EA6"></path></g><g transform="translate(136 57)"><path d="M0 -7L4.9 -4.9L7 0L4.9 4.9L0 7L-4.9 4.9L-7 0L-4.9 -4.9Z" fill="#297EA6"></path></g><g transform="translate(166 163)"><path d="M0 -3L2.1 -2.1L3 0L2.1 2.1L0 3L-2.1 2.1L-3 0L-2.1 -2.1Z" fill="#297EA6"></path></g><g transform="translate(562 298)"><path d="M0 -6L4.2 -4.2L6 0L4.2 4.2L0 6L-4.2 4.2L-6 0L-4.2 -4.2Z" fill="#297EA6"></path></g><g transform="translate(897 226)"><path d="M0 -6L4.2 -4.2L6 0L4.2 4.2L0 6L-4.2 4.2L-6 0L-4.2 -4.2Z" fill="#297EA6"></path></g><g transform="translate(369 493)"><path d="M0 -9L6.4 -6.4L9 0L6.4 6.4L0 9L-6.4 6.4L-9 0L-6.4 -6.4Z" fill="#297EA6"></path></g><g transform="translate(740 403)"><path d="M0 -8L5.7 -5.7L8 0L5.7 5.7L0 8L-5.7 5.7L-8 0L-5.7 -5.7Z" fill="#297EA6"></path></g><g transform="translate(647 67)"><path d="M0 -11L7.8 -7.8L11 0L7.8 7.8L0 11L-7.8 7.8L-11 0L-7.8 -7.8Z" fill="#297EA6"></path></g><g transform="translate(448 136)"><path d="M0 -1L0.7 -0.7L1 0L0.7 0.7L0 1L-0.7 0.7L-1 0L-0.7 -0.7Z" fill="#297EA6"></path></g><g transform="translate(300 415)"><path d="M0 -10L7.1 -7.1L10 0L7.1 7.1L0 10L-7.1 7.1L-10 0L-7.1 -7.1Z" fill="#297EA6"></path></g><g transform="translate(11 337)"><path d="M0 -6L4.2 -4.2L6 0L4.2 4.2L0 6L-4.2 4.2L-6 0L-4.2 -4.2Z" fill="#297EA6"></path></g><g transform="translate(851 301)"><path d="M0 -10L7.1 -7.1L10 0L7.1 7.1L0 10L-7.1 7.1L-10 0L-7.1 -7.1Z" fill="#297EA6"></path></g><g transform="translate(85 352)"><path d="M0 -8L5.7 -5.7L8 0L5.7 5.7L0 8L-5.7 5.7L-8 0L-5.7 -5.7Z" fill="#297EA6"></path></g><g transform="translate(149 375)"><path d="M0 -5L3.5 -3.5L5 0L3.5 3.5L0 5L-3.5 3.5L-5 0L-3.5 -3.5Z" fill="#297EA6"></path></g><g transform="translate(174 482)"><path d="M0 -10L7.1 -7.1L10 0L7.1 7.1L0 10L-7.1 7.1L-10 0L-7.1 -7.1Z" fill="#297EA6"></path></g><g transform="translate(239 594)"><path d="M0 -4L2.8 -2.8L4 0L2.8 2.8L0 4L-2.8 2.8L-4 0L-2.8 -2.8Z" fill="#297EA6"></path></g><g transform="translate(766 176)"><path d="M0 -10L7.1 -7.1L10 0L7.1 7.1L0 10L-7.1 7.1L-10 0L-7.1 -7.1Z" fill="#297EA6"></path></g><g transform="translate(342 136)"><path d="M0 -5L3.5 -3.5L5 0L3.5 3.5L0 5L-3.5 3.5L-5 0L-3.5 -3.5Z" fill="#297EA6"></path></g><g transform="translate(896 180)"><path d="M0 -8L5.7 -5.7L8 0L5.7 5.7L0 8L-5.7 5.7L-8 0L-5.7 -5.7Z" fill="#297EA6"></path></g><g transform="translate(365 161)"><path d="M0 -9L6.4 -6.4L9 0L6.4 6.4L0 9L-6.4 6.4L-9 0L-6.4 -6.4Z" fill="#297EA6"></path></g><g transform="translate(277 218)"><path d="M0 -10L7.1 -7.1L10 0L7.1 7.1L0 10L-7.1 7.1L-10 0L-7.1 -7.1Z" fill="#297EA6"></path></g><g transform="translate(190 238)"><path d="M0 -7L4.9 -4.9L7 0L4.9 4.9L0 7L-4.9 4.9L-7 0L-4.9 -4.9Z" fill="#297EA6"></path></g><g transform="translate(272 94)"><path d="M0 -9L6.4 -6.4L9 0L6.4 6.4L0 9L-6.4 6.4L-9 0L-6.4 -6.4Z" fill="#297EA6"></path></g><g transform="translate(410 520)"><path d="M0 -11L7.8 -7.8L11 0L7.8 7.8L0 11L-7.8 7.8L-11 0L-7.8 -7.8Z" fill="#297EA6"></path></g><g transform="translate(494 307)"><path d="M0 -3L2.1 -2.1L3 0L2.1 2.1L0 3L-2.1 2.1L-3 0L-2.1 -2.1Z" fill="#297EA6"></path></g><g transform="translate(680 151)"><path d="M0 -1L0.7 -0.7L1 0L0.7 0.7L0 1L-0.7 0.7L-1 0L-0.7 -0.7Z" fill="#297EA6"></path></g><g transform="translate(771 446)"><path d="M0 -3L2.1 -2.1L3 0L2.1 2.1L0 3L-2.1 2.1L-3 0L-2.1 -2.1Z" fill="#297EA6"></path></g><g transform="translate(695 109)"><path d="M0 -1L0.7 -0.7L1 0L0.7 0.7L0 1L-0.7 0.7L-1 0L-0.7 -0.7Z" fill="#297EA6"></path></g><g transform="translate(448 249)"><path d="M0 -10L7.1 -7.1L10 0L7.1 7.1L0 10L-7.1 7.1L-10 0L-7.1 -7.1Z" fill="#297EA6"></path></g><g transform="translate(583 450)"><path d="M0 -9L6.4 -6.4L9 0L6.4 6.4L0 9L-6.4 6.4L-9 0L-6.4 -6.4Z" fill="#297EA6"></path></g><g transform="translate(780 488)"><path d="M0 -9L6.4 -6.4L9 0L6.4 6.4L0 9L-6.4 6.4L-9 0L-6.4 -6.4Z" fill="#297EA6"></path></g><g transform="translate(283 245)"><path d="M0 -8L5.7 -5.7L8 0L5.7 5.7L0 8L-5.7 5.7L-8 0L-5.7 -5.7Z" fill="#297EA6"></path></g><g transform="translate(746 86)"><path d="M0 -1L0.7 -0.7L1 0L0.7 0.7L0 1L-0.7 0.7L-1 0L-0.7 -0.7Z" fill="#297EA6"></path></g><g transform="translate(180 54)"><path d="M0 -5L3.5 -3.5L5 0L3.5 3.5L0 5L-3.5 3.5L-5 0L-3.5 -3.5Z" fill="#297EA6"></path></g><g transform="translate(283 385)"><path d="M0 -9L6.4 -6.4L9 0L6.4 6.4L0 9L-6.4 6.4L-9 0L-6.4 -6.4Z" fill="#297EA6"></path></g><g transform="translate(894 310)"><path d="M0 -11L7.8 -7.8L11 0L7.8 7.8L0 11L-7.8 7.8L-11 0L-7.8 -7.8Z" fill="#297EA6"></path></g><g transform="translate(22 442)"><path d="M0 -6L4.2 -4.2L6 0L4.2 4.2L0 6L-4.2 4.2L-6 0L-4.2 -4.2Z" fill="#297EA6"></path></g><g transform="translate(92 81)"><path d="M0 -8L5.7 -5.7L8 0L5.7 5.7L0 8L-5.7 5.7L-8 0L-5.7 -5.7Z" fill="#297EA6"></path></g><g transform="translate(261 351)"><path d="M0 -2L1.4 -1.4L2 0L1.4 1.4L0 2L-1.4 1.4L-2 0L-1.4 -1.4Z" fill="#297EA6"></path></g><g transform="translate(897 375)"><path d="M0 -7L4.9 -4.9L7 0L4.9 4.9L0 7L-4.9 4.9L-7 0L-4.9 -4.9Z" fill="#297EA6"></path></g><g transform="translate(287 316)"><path d="M0 -7L4.9 -4.9L7 0L4.9 4.9L0 7L-4.9 4.9L-7 0L-4.9 -4.9Z" fill="#297EA6"></path></g><g transform="translate(402 174)"><path d="M0 -3L2.1 -2.1L3 0L2.1 2.1L0 3L-2.1 2.1L-3 0L-2.1 -2.1Z" fill="#297EA6"></path></g><g transform="translate(564 541)"><path d="M0 -7L4.9 -4.9L7 0L4.9 4.9L0 7L-4.9 4.9L-7 0L-4.9 -4.9Z" fill="#297EA6"></path></g><g transform="translate(278 539)"><path d="M0 -1L0.7 -0.7L1 0L0.7 0.7L0 1L-0.7 0.7L-1 0L-0.7 -0.7Z" fill="#297EA6"></path></g><g transform="translate(860 89)"><path d="M0 -8L5.7 -5.7L8 0L5.7 5.7L0 8L-5.7 5.7L-8 0L-5.7 -5.7Z" fill="#297EA6"></path></g><g transform="translate(383 525)"><path d="M0 -8L5.7 -5.7L8 0L5.7 5.7L0 8L-5.7 5.7L-8 0L-5.7 -5.7Z" fill="#297EA6"></path></g><g transform="translate(318 374)"><path d="M0 -9L6.4 -6.4L9 0L6.4 6.4L0 9L-6.4 6.4L-9 0L-6.4 -6.4Z" fill="#297EA6"></path></g><g transform="translate(420 120)"><path d="M0 -5L3.5 -3.5L5 0L3.5 3.5L0 5L-3.5 3.5L-5 0L-3.5 -3.5Z" fill="#297EA6"></path></g><g transform="translate(137 487)"><path d="M0 -2L1.4 -1.4L2 0L1.4 1.4L0 2L-1.4 1.4L-2 0L-1.4 -1.4Z" fill="#297EA6"></path></g><g transform="translate(11 471)"><path d="M0 -6L4.2 -4.2L6 0L4.2 4.2L0 6L-4.2 4.2L-6 0L-4.2 -4.2Z" fill="#297EA6"></path></g><g transform="translate(732 27)"><path d="M0 -11L7.8 -7.8L11 0L7.8 7.8L0 11L-7.8 7.8L-11 0L-7.8 -7.8Z" fill="#297EA6"></path></g><g transform="translate(870 142)"><path d="M0 -10L7.1 -7.1L10 0L7.1 7.1L0 10L-7.1 7.1L-10 0L-7.1 -7.1Z" fill="#297EA6"></path></g><g transform="translate(738 314)"><path d="M0 -5L3.5 -3.5L5 0L3.5 3.5L0 5L-3.5 3.5L-5 0L-3.5 -3.5Z" fill="#297EA6"></path></g><g transform="translate(635 104)"><path d="M0 -12L8.5 -8.5L12 0L8.5 8.5L0 12L-8.5 8.5L-12 0L-8.5 -8.5Z" fill="#297EA6"></path></g><g transform="translate(50 341)"><path d="M0 -10L7.1 -7.1L10 0L7.1 7.1L0 10L-7.1 7.1L-10 0L-7.1 -7.1Z" fill="#297EA6"></path></g><g transform="translate(452 108)"><path d="M0 -8L5.7 -5.7L8 0L5.7 5.7L0 8L-5.7 5.7L-8 0L-5.7 -5.7Z" fill="#297EA6"></path></g><g transform="translate(514 455)"><path d="M0 -5L3.5 -3.5L5 0L3.5 3.5L0 5L-3.5 3.5L-5 0L-3.5 -3.5Z" fill="#297EA6"></path></g><g transform="translate(49 103)"><path d="M0 -10L7.1 -7.1L10 0L7.1 7.1L0 10L-7.1 7.1L-10 0L-7.1 -7.1Z" fill="#297EA6"></path></g><g transform="translate(797 247)"><path d="M0 -2L1.4 -1.4L2 0L1.4 1.4L0 2L-1.4 1.4L-2 0L-1.4 -1.4Z" fill="#297EA6"></path></g><g transform="translate(744 3)"><path d="M0 -2L1.4 -1.4L2 0L1.4 1.4L0 2L-1.4 1.4L-2 0L-1.4 -1.4Z" fill="#297EA6"></path></g><g transform="translate(390 559)"><path d="M0 -5L3.5 -3.5L5 0L3.5 3.5L0 5L-3.5 3.5L-5 0L-3.5 -3.5Z" fill="#297EA6"></path></g><g transform="translate(349 93)"><path d="M0 -5L3.5 -3.5L5 0L3.5 3.5L0 5L-3.5 3.5L-5 0L-3.5 -3.5Z" fill="#297EA6"></path></g><g transform="translate(170 520)"><path d="M0 -9L6.4 -6.4L9 0L6.4 6.4L0 9L-6.4 6.4L-9 0L-6.4 -6.4Z" fill="#297EA6"></path></g><g transform="translate(703 16)"><path d="M0 -7L4.9 -4.9L7 0L4.9 4.9L0 7L-4.9 4.9L-7 0L-4.9 -4.9Z" fill="#297EA6"></path></g><g transform="translate(68 428)"><path d="M0 -8L5.7 -5.7L8 0L5.7 5.7L0 8L-5.7 5.7L-8 0L-5.7 -5.7Z" fill="#297EA6"></path></g><g transform="translate(42 61)"><path d="M0 -2L1.4 -1.4L2 0L1.4 1.4L0 2L-1.4 1.4L-2 0L-1.4 -1.4Z" fill="#297EA6"></path></g><g transform="translate(539 272)"><path d="M0 -3L2.1 -2.1L3 0L2.1 2.1L0 3L-2.1 2.1L-3 0L-2.1 -2.1Z" fill="#297EA6"></path></g><g transform="translate(432 479)"><path d="M0 -12L8.5 -8.5L12 0L8.5 8.5L0 12L-8.5 8.5L-12 0L-8.5 -8.5Z" fill="#297EA6"></path></g><g transform="translate(66 395)"><path d="M0 -3L2.1 -2.1L3 0L2.1 2.1L0 3L-2.1 2.1L-3 0L-2.1 -2.1Z" fill="#297EA6"></path></g><g transform="translate(104 13)"><path d="M0 -2L1.4 -1.4L2 0L1.4 1.4L0 2L-1.4 1.4L-2 0L-1.4 -1.4Z" fill="#297EA6"></path></g><g transform="translate(715 501)"><path d="M0 -7L4.9 -4.9L7 0L4.9 4.9L0 7L-4.9 4.9L-7 0L-4.9 -4.9Z" fill="#297EA6"></path></g><g transform="translate(65 569)"><path d="M0 -5L3.5 -3.5L5 0L3.5 3.5L0 5L-3.5 3.5L-5 0L-3.5 -3.5Z" fill="#297EA6"></path></g><g transform="translate(690 71)"><path d="M0 -12L8.5 -8.5L12 0L8.5 8.5L0 12L-8.5 8.5L-12 0L-8.5 -8.5Z" fill="#297EA6"></path></g><g transform="translate(590 152)"><path d="M0 -2L1.4 -1.4L2 0L1.4 1.4L0 2L-1.4 1.4L-2 0L-1.4 -1.4Z" fill="#297EA6"></path></g><g transform="translate(854 163)"><path d="M0 -7L4.9 -4.9L7 0L4.9 4.9L0 7L-4.9 4.9L-7 0L-4.9 -4.9Z" fill="#297EA6"></path></g><g transform="translate(494 393)"><path d="M0 -11L7.8 -7.8L11 0L7.8 7.8L0 11L-7.8 7.8L-11 0L-7.8 -7.8Z" fill="#297EA6"></path></g><g transform="translate(334 567)"><path d="M0 -8L5.7 -5.7L8 0L5.7 5.7L0 8L-5.7 5.7L-8 0L-5.7 -5.7Z" fill="#297EA6"></path></g><g transform="translate(392 592)"><path d="M0 -11L7.8 -7.8L11 0L7.8 7.8L0 11L-7.8 7.8L-11 0L-7.8 -7.8Z" fill="#297EA6"></path></g><g transform="translate(797 435)"><path d="M0 -10L7.1 -7.1L10 0L7.1 7.1L0 10L-7.1 7.1L-10 0L-7.1 -7.1Z" fill="#297EA6"></path></g><g transform="translate(144 348)"><path d="M0 -5L3.5 -3.5L5 0L3.5 3.5L0 5L-3.5 3.5L-5 0L-3.5 -3.5Z" fill="#297EA6"></path></g><g transform="translate(666 309)"><path d="M0 -2L1.4 -1.4L2 0L1.4 1.4L0 2L-1.4 1.4L-2 0L-1.4 -1.4Z" fill="#297EA6"></path></g><g transform="translate(861 221)"><path d="M0 -5L3.5 -3.5L5 0L3.5 3.5L0 5L-3.5 3.5L-5 0L-3.5 -3.5Z" fill="#297EA6"></path></g><g transform="translate(584 3)"><path d="M0 -2L1.4 -1.4L2 0L1.4 1.4L0 2L-1.4 1.4L-2 0L-1.4 -1.4Z" fill="#297EA6"></path></g><g transform="translate(776 139)"><path d="M0 -7L4.9 -4.9L7 0L4.9 4.9L0 7L-4.9 4.9L-7 0L-4.9 -4.9Z" fill="#297EA6"></path></g><g transform="translate(400 6)"><path d="M0 -12L8.5 -8.5L12 0L8.5 8.5L0 12L-8.5 8.5L-12 0L-8.5 -8.5Z" fill="#297EA6"></path></g><g transform="translate(608 348)"><path d="M0 -6L4.2 -4.2L6 0L4.2 4.2L0 6L-4.2 4.2L-6 0L-4.2 -4.2Z" fill="#297EA6"></path></g><g transform="translate(619 388)"><path d="M0 -1L0.7 -0.7L1 0L0.7 0.7L0 1L-0.7 0.7L-1 0L-0.7 -0.7Z" fill="#297EA6"></path></g><g transform="translate(226 395)"><path d="M0 -5L3.5 -3.5L5 0L3.5 3.5L0 5L-3.5 3.5L-5 0L-3.5 -3.5Z" fill="#297EA6"></path></g><g transform="translate(5 513)"><path d="M0 -11L7.8 -7.8L11 0L7.8 7.8L0 11L-7.8 7.8L-11 0L-7.8 -7.8Z" fill="#297EA6"></path></g><g transform="translate(166 127)"><path d="M0 -5L3.5 -3.5L5 0L3.5 3.5L0 5L-3.5 3.5L-5 0L-3.5 -3.5Z" fill="#297EA6"></path></g><g transform="translate(71 231)"><path d="M0 -1L0.7 -0.7L1 0L0.7 0.7L0 1L-0.7 0.7L-1 0L-0.7 -0.7Z" fill="#297EA6"></path></g><g transform="translate(156 265)"><path d="M0 -3L2.1 -2.1L3 0L2.1 2.1L0 3L-2.1 2.1L-3 0L-2.1 -2.1Z" fill="#297EA6"></path></g><g transform="translate(390 411)"><path d="M0 -6L4.2 -4.2L6 0L4.2 4.2L0 6L-4.2 4.2L-6 0L-4.2 -4.2Z" fill="#297EA6"></path></g><g transform="translate(824 462)"><path d="M0 -10L7.1 -7.1L10 0L7.1 7.1L0 10L-7.1 7.1L-10 0L-7.1 -7.1Z" fill="#297EA6"></path></g><g transform="translate(760 56)"><path d="M0 -1L0.7 -0.7L1 0L0.7 0.7L0 1L-0.7 0.7L-1 0L-0.7 -0.7Z" fill="#297EA6"></path></g><g transform="translate(689 484)"><path d="M0 -11L7.8 -7.8L11 0L7.8 7.8L0 11L-7.8 7.8L-11 0L-7.8 -7.8Z" fill="#297EA6"></path></g><g transform="translate(509 153)"><path d="M0 -12L8.5 -8.5L12 0L8.5 8.5L0 12L-8.5 8.5L-12 0L-8.5 -8.5Z" fill="#297EA6"></path></g><g transform="translate(801 124)"><path d="M0 -2L1.4 -1.4L2 0L1.4 1.4L0 2L-1.4 1.4L-2 0L-1.4 -1.4Z" fill="#297EA6"></path></g><g transform="translate(177 422)"><path d="M0 -4L2.8 -2.8L4 0L2.8 2.8L0 4L-2.8 2.8L-4 0L-2.8 -2.8Z" fill="#297EA6"></path></g><g transform="translate(358 404)"><path d="M0 -9L6.4 -6.4L9 0L6.4 6.4L0 9L-6.4 6.4L-9 0L-6.4 -6.4Z" fill="#297EA6"></path></g><g transform="translate(736 134)"><path d="M0 -3L2.1 -2.1L3 0L2.1 2.1L0 3L-2.1 2.1L-3 0L-2.1 -2.1Z" fill="#297EA6"></path></g><g transform="translate(639 513)"><path d="M0 -2L1.4 -1.4L2 0L1.4 1.4L0 2L-1.4 1.4L-2 0L-1.4 -1.4Z" fill="#297EA6"></path></g><g transform="translate(775 554)"><path d="M0 -5L3.5 -3.5L5 0L3.5 3.5L0 5L-3.5 3.5L-5 0L-3.5 -3.5Z" fill="#297EA6"></path></g><g transform="translate(637 210)"><path d="M0 -4L2.8 -2.8L4 0L2.8 2.8L0 4L-2.8 2.8L-4 0L-2.8 -2.8Z" fill="#297EA6"></path></g><g transform="translate(298 594)"><path d="M0 -7L4.9 -4.9L7 0L4.9 4.9L0 7L-4.9 4.9L-7 0L-4.9 -4.9Z" fill="#297EA6"></path></g><g transform="translate(842 371)"><path d="M0 -5L3.5 -3.5L5 0L3.5 3.5L0 5L-3.5 3.5L-5 0L-3.5 -3.5Z" fill="#297EA6"></path></g><g transform="translate(716 257)"><path d="M0 -12L8.5 -8.5L12 0L8.5 8.5L0 12L-8.5 8.5L-12 0L-8.5 -8.5Z" fill="#297EA6"></path></g><g transform="translate(555 194)"><path d="M0 -4L2.8 -2.8L4 0L2.8 2.8L0 4L-2.8 2.8L-4 0L-2.8 -2.8Z" fill="#297EA6"></path></g><g transform="translate(285 487)"><path d="M0 -4L2.8 -2.8L4 0L2.8 2.8L0 4L-2.8 2.8L-4 0L-2.8 -2.8Z" fill="#297EA6"></path></g><g transform="translate(37 293)"><path d="M0 -1L0.7 -0.7L1 0L0.7 0.7L0 1L-0.7 0.7L-1 0L-0.7 -0.7Z" fill="#297EA6"></path></g><g transform="translate(1 84)"><path d="M0 -2L1.4 -1.4L2 0L1.4 1.4L0 2L-1.4 1.4L-2 0L-1.4 -1.4Z" fill="#297EA6"></path></g><g transform="translate(838 596)"><path d="M0 -2L1.4 -1.4L2 0L1.4 1.4L0 2L-1.4 1.4L-2 0L-1.4 -1.4Z" fill="#297EA6"></path></g><g transform="translate(204 148)"><path d="M0 -9L6.4 -6.4L9 0L6.4 6.4L0 9L-6.4 6.4L-9 0L-6.4 -6.4Z" fill="#297EA6"></path></g><g transform="translate(860 490)"><path d="M0 -6L4.2 -4.2L6 0L4.2 4.2L0 6L-4.2 4.2L-6 0L-4.2 -4.2Z" fill="#297EA6"></path></g><g transform="translate(140 27)"><path d="M0 -1L0.7 -0.7L1 0L0.7 0.7L0 1L-0.7 0.7L-1 0L-0.7 -0.7Z" fill="#297EA6"></path></g><g transform="translate(41 421)"><path d="M0 -5L3.5 -3.5L5 0L3.5 3.5L0 5L-3.5 3.5L-5 0L-3.5 -3.5Z" fill="#297EA6"></path></g><g transform="translate(16 404)"><path d="M0 -4L2.8 -2.8L4 0L2.8 2.8L0 4L-2.8 2.8L-4 0L-2.8 -2.8Z" fill="#297EA6"></path></g><g transform="translate(649 256)"><path d="M0 -4L2.8 -2.8L4 0L2.8 2.8L0 4L-2.8 2.8L-4 0L-2.8 -2.8Z" fill="#297EA6"></path></g><g transform="translate(520 223)"><path d="M0 -8L5.7 -5.7L8 0L5.7 5.7L0 8L-5.7 5.7L-8 0L-5.7 -5.7Z" fill="#297EA6"></path></g><g transform="translate(557 587)"><path d="M0 -12L8.5 -8.5L12 0L8.5 8.5L0 12L-8.5 8.5L-12 0L-8.5 -8.5Z" fill="#297EA6"></path></g><g transform="translate(525 28)"><path d="M0 -2L1.4 -1.4L2 0L1.4 1.4L0 2L-1.4 1.4L-2 0L-1.4 -1.4Z" fill="#297EA6"></path></g><g transform="translate(594 213)"><path d="M0 -11L7.8 -7.8L11 0L7.8 7.8L0 11L-7.8 7.8L-11 0L-7.8 -7.8Z" fill="#297EA6"></path></g><g transform="translate(5 306)"><path d="M0 -11L7.8 -7.8L11 0L7.8 7.8L0 11L-7.8 7.8L-11 0L-7.8 -7.8Z" fill="#297EA6"></path></g><g transform="translate(586 283)"><path d="M0 -9L6.4 -6.4L9 0L6.4 6.4L0 9L-6.4 6.4L-9 0L-6.4 -6.4Z" fill="#297EA6"></path></g><g transform="translate(35 494)"><path d="M0 -7L4.9 -4.9L7 0L4.9 4.9L0 7L-4.9 4.9L-7 0L-4.9 -4.9Z" fill="#297EA6"></path></g><g transform="translate(338 426)"><path d="M0 -3L2.1 -2.1L3 0L2.1 2.1L0 3L-2.1 2.1L-3 0L-2.1 -2.1Z" fill="#297EA6"></path></g><g transform="translate(865 536)"><path d="M0 -4L2.8 -2.8L4 0L2.8 2.8L0 4L-2.8 2.8L-4 0L-2.8 -2.8Z" fill="#297EA6"></path></g><g transform="translate(171 455)"><path d="M0 -2L1.4 -1.4L2 0L1.4 1.4L0 2L-1.4 1.4L-2 0L-1.4 -1.4Z" fill="#297EA6"></path></g><g transform="translate(838 112)"><path d="M0 -6L4.2 -4.2L6 0L4.2 4.2L0 6L-4.2 4.2L-6 0L-4.2 -4.2Z" fill="#297EA6"></path></g><g transform="translate(63 149)"><path d="M0 -7L4.9 -4.9L7 0L4.9 4.9L0 7L-4.9 4.9L-7 0L-4.9 -4.9Z" fill="#297EA6"></path></g><g transform="translate(742 164)"><path d="M0 -2L1.4 -1.4L2 0L1.4 1.4L0 2L-1.4 1.4L-2 0L-1.4 -1.4Z" fill="#297EA6"></path></g><g transform="translate(568 499)"><path d="M0 -8L5.7 -5.7L8 0L5.7 5.7L0 8L-5.7 5.7L-8 0L-5.7 -5.7Z" fill="#297EA6"></path></g><g transform="translate(497 429)"><path d="M0 -10L7.1 -7.1L10 0L7.1 7.1L0 10L-7.1 7.1L-10 0L-7.1 -7.1Z" fill="#297EA6"></path></g><g transform="translate(443 312)"><path d="M0 -5L3.5 -3.5L5 0L3.5 3.5L0 5L-3.5 3.5L-5 0L-3.5 -3.5Z" fill="#297EA6"></path></g><g transform="translate(529 87)"><path d="M0 -12L8.5 -8.5L12 0L8.5 8.5L0 12L-8.5 8.5L-12 0L-8.5 -8.5Z" fill="#297EA6"></path></g><g transform="translate(116 356)"><path d="M0 -8L5.7 -5.7L8 0L5.7 5.7L0 8L-5.7 5.7L-8 0L-5.7 -5.7Z" fill="#297EA6"></path></g><g transform="translate(424 429)"><path d="M0 -6L4.2 -4.2L6 0L4.2 4.2L0 6L-4.2 4.2L-6 0L-4.2 -4.2Z" fill="#297EA6"></path></g><g transform="translate(308 274)"><path d="M0 -12L8.5 -8.5L12 0L8.5 8.5L0 12L-8.5 8.5L-12 0L-8.5 -8.5Z" fill="#297EA6"></path></g><g transform="translate(708 142)"><path d="M0 -12L8.5 -8.5L12 0L8.5 8.5L0 12L-8.5 8.5L-12 0L-8.5 -8.5Z" fill="#297EA6"></path></g><g transform="translate(192 179)"><path d="M0 -1L0.7 -0.7L1 0L0.7 0.7L0 1L-0.7 0.7L-1 0L-0.7 -0.7Z" fill="#297EA6"></path></g><g transform="translate(447 210)"><path d="M0 -2L1.4 -1.4L2 0L1.4 1.4L0 2L-1.4 1.4L-2 0L-1.4 -1.4Z" fill="#297EA6"></path></g><g transform="translate(643 2)"><path d="M0 -11L7.8 -7.8L11 0L7.8 7.8L0 11L-7.8 7.8L-11 0L-7.8 -7.8Z" fill="#297EA6"></path></g><g transform="translate(501 592)"><path d="M0 -4L2.8 -2.8L4 0L2.8 2.8L0 4L-2.8 2.8L-4 0L-2.8 -2.8Z" fill="#297EA6"></path></g><g transform="translate(250 522)"><path d="M0 -3L2.1 -2.1L3 0L2.1 2.1L0 3L-2.1 2.1L-3 0L-2.1 -2.1Z" fill="#297EA6"></path></g><g transform="translate(297 446)"><path d="M0 -1L0.7 -0.7L1 0L0.7 0.7L0 1L-0.7 0.7L-1 0L-0.7 -0.7Z" fill="#297EA6"></path></g><g transform="translate(682 384)"><path d="M0 -7L4.9 -4.9L7 0L4.9 4.9L0 7L-4.9 4.9L-7 0L-4.9 -4.9Z" fill="#297EA6"></path></g><g transform="translate(886 2)"><path d="M0 -6L4.2 -4.2L6 0L4.2 4.2L0 6L-4.2 4.2L-6 0L-4.2 -4.2Z" fill="#297EA6"></path></g><g transform="translate(894 257)"><path d="M0 -5L3.5 -3.5L5 0L3.5 3.5L0 5L-3.5 3.5L-5 0L-3.5 -3.5Z" fill="#297EA6"></path></g><g transform="translate(381 82)"><path d="M0 -6L4.2 -4.2L6 0L4.2 4.2L0 6L-4.2 4.2L-6 0L-4.2 -4.2Z" fill="#297EA6"></path></g><g transform="translate(250 110)"><path d="M0 -3L2.1 -2.1L3 0L2.1 2.1L0 3L-2.1 2.1L-3 0L-2.1 -2.1Z" fill="#297EA6"></path></g><g transform="translate(1 139)"><path d="M0 -3L2.1 -2.1L3 0L2.1 2.1L0 3L-2.1 2.1L-3 0L-2.1 -2.1Z" fill="#297EA6"></path></g><g transform="translate(679 587)"><path d="M0 -9L6.4 -6.4L9 0L6.4 6.4L0 9L-6.4 6.4L-9 0L-6.4 -6.4Z" fill="#297EA6"></path></g><g transform="translate(299 515)"><path d="M0 -7L4.9 -4.9L7 0L4.9 4.9L0 7L-4.9 4.9L-7 0L-4.9 -4.9Z" fill="#297EA6"></path></g><g transform="translate(529 183)"><path d="M0 -10L7.1 -7.1L10 0L7.1 7.1L0 10L-7.1 7.1L-10 0L-7.1 -7.1Z" fill="#297EA6"></path></g><g transform="translate(821 8)"><path d="M0 -3L2.1 -2.1L3 0L2.1 2.1L0 3L-2.1 2.1L-3 0L-2.1 -2.1Z" fill="#297EA6"></path></g><g transform="translate(552 120)"><path d="M0 -11L7.8 -7.8L11 0L7.8 7.8L0 11L-7.8 7.8L-11 0L-7.8 -7.8Z" fill="#297EA6"></path></g><g transform="translate(535 505)"><path d="M0 -4L2.8 -2.8L4 0L2.8 2.8L0 4L-2.8 2.8L-4 0L-2.8 -2.8Z" fill="#297EA6"></path></g><g transform="translate(6 249)"><path d="M0 -6L4.2 -4.2L6 0L4.2 4.2L0 6L-4.2 4.2L-6 0L-4.2 -4.2Z" fill="#297EA6"></path></g><g transform="translate(883 438)"><path d="M0 -12L8.5 -8.5L12 0L8.5 8.5L0 12L-8.5 8.5L-12 0L-8.5 -8.5Z" fill="#297EA6"></path></g><g transform="translate(604 104)"><path d="M0 -3L2.1 -2.1L3 0L2.1 2.1L0 3L-2.1 2.1L-3 0L-2.1 -2.1Z" fill="#297EA6"></path></g><g transform="translate(681 45)"><path d="M0 -5L3.5 -3.5L5 0L3.5 3.5L0 5L-3.5 3.5L-5 0L-3.5 -3.5Z" fill="#297EA6"></path></g><g transform="translate(366 376)"><path d="M0 -3L2.1 -2.1L3 0L2.1 2.1L0 3L-2.1 2.1L-3 0L-2.1 -2.1Z" fill="#297EA6"></path></g><g transform="translate(143 420)"><path d="M0 -5L3.5 -3.5L5 0L3.5 3.5L0 5L-3.5 3.5L-5 0L-3.5 -3.5Z" fill="#297EA6"></path></g><g transform="translate(753 261)"><path d="M0 -2L1.4 -1.4L2 0L1.4 1.4L0 2L-1.4 1.4L-2 0L-1.4 -1.4Z" fill="#297EA6"></path></g><g transform="translate(711 215)"><path d="M0 -7L4.9 -4.9L7 0L4.9 4.9L0 7L-4.9 4.9L-7 0L-4.9 -4.9Z" fill="#297EA6"></path></g><g transform="translate(623 423)"><path d="M0 -9L6.4 -6.4L9 0L6.4 6.4L0 9L-6.4 6.4L-9 0L-6.4 -6.4Z" fill="#297EA6"></path></g><g transform="translate(258 402)"><path d="M0 -4L2.8 -2.8L4 0L2.8 2.8L0 4L-2.8 2.8L-4 0L-2.8 -2.8Z" fill="#297EA6"></path></g><g transform="translate(291 122)"><path d="M0 -10L7.1 -7.1L10 0L7.1 7.1L0 10L-7.1 7.1L-10 0L-7.1 -7.1Z" fill="#297EA6"></path></g><g transform="translate(13 8)"><path d="M0 -1L0.7 -0.7L1 0L0.7 0.7L0 1L-0.7 0.7L-1 0L-0.7 -0.7Z" fill="#297EA6"></path></g><g transform="translate(541 3)"><path d="M0 -7L4.9 -4.9L7 0L4.9 4.9L0 7L-4.9 4.9L-7 0L-4.9 -4.9Z" fill="#297EA6"></path></g><g transform="translate(617 10)"><path d="M0 -3L2.1 -2.1L3 0L2.1 2.1L0 3L-2.1 2.1L-3 0L-2.1 -2.1Z" fill="#297EA6"></path></g><g transform="translate(434 342)"><path d="M0 -11L7.8 -7.8L11 0L7.8 7.8L0 11L-7.8 7.8L-11 0L-7.8 -7.8Z" fill="#297EA6"></path></g><g transform="translate(423 397)"><path d="M0 -10L7.1 -7.1L10 0L7.1 7.1L0 10L-7.1 7.1L-10 0L-7.1 -7.1Z" fill="#297EA6"></path></g><g transform="translate(759 114)"><path d="M0 -1L0.7 -0.7L1 0L0.7 0.7L0 1L-0.7 0.7L-1 0L-0.7 -0.7Z" fill="#297EA6"></path></g><g transform="translate(43 221)"><path d="M0 -2L1.4 -1.4L2 0L1.4 1.4L0 2L-1.4 1.4L-2 0L-1.4 -1.4Z" fill="#297EA6"></path></g><g transform="translate(856 343)"><path d="M0 -10L7.1 -7.1L10 0L7.1 7.1L0 10L-7.1 7.1L-10 0L-7.1 -7.1Z" fill="#297EA6"></path></g><g transform="translate(595 517)"><path d="M0 -4L2.8 -2.8L4 0L2.8 2.8L0 4L-2.8 2.8L-4 0L-2.8 -2.8Z" fill="#297EA6"></path></g><g transform="translate(219 171)"><path d="M0 -12L8.5 -8.5L12 0L8.5 8.5L0 12L-8.5 8.5L-12 0L-8.5 -8.5Z" fill="#297EA6"></path></g><g transform="translate(788 95)"><path d="M0 -3L2.1 -2.1L3 0L2.1 2.1L0 3L-2.1 2.1L-3 0L-2.1 -2.1Z" fill="#297EA6"></path></g><g transform="translate(87 516)"><path d="M0 -1L0.7 -0.7L1 0L0.7 0.7L0 1L-0.7 0.7L-1 0L-0.7 -0.7Z" fill="#297EA6"></path></g><g transform="translate(873 596)"><path d="M0 -2L1.4 -1.4L2 0L1.4 1.4L0 2L-1.4 1.4L-2 0L-1.4 -1.4Z" fill="#297EA6"></path></g><g transform="translate(140 188)"><path d="M0 -3L2.1 -2.1L3 0L2.1 2.1L0 3L-2.1 2.1L-3 0L-2.1 -2.1Z" fill="#297EA6"></path></g><g transform="translate(744 489)"><path d="M0 -5L3.5 -3.5L5 0L3.5 3.5L0 5L-3.5 3.5L-5 0L-3.5 -3.5Z" fill="#297EA6"></path></g><g transform="translate(882 111)"><path d="M0 -3L2.1 -2.1L3 0L2.1 2.1L0 3L-2.1 2.1L-3 0L-2.1 -2.1Z" fill="#297EA6"></path></g><g transform="translate(318 478)"><path d="M0 -8L5.7 -5.7L8 0L5.7 5.7L0 8L-5.7 5.7L-8 0L-5.7 -5.7Z" fill="#297EA6"></path></g><g transform="translate(497 91)"><path d="M0 -10L7.1 -7.1L10 0L7.1 7.1L0 10L-7.1 7.1L-10 0L-7.1 -7.1Z" fill="#297EA6"></path></g><g transform="translate(822 44)"><path d="M0 -8L5.7 -5.7L8 0L5.7 5.7L0 8L-5.7 5.7L-8 0L-5.7 -5.7Z" fill="#297EA6"></path></g><g transform="translate(441 282)"><path d="M0 -4L2.8 -2.8L4 0L2.8 2.8L0 4L-2.8 2.8L-4 0L-2.8 -2.8Z" fill="#297EA6"></path></g><g transform="translate(804 326)"><path d="M0 -6L4.2 -4.2L6 0L4.2 4.2L0 6L-4.2 4.2L-6 0L-4.2 -4.2Z" fill="#297EA6"></path></g><g transform="translate(423 19)"><path d="M0 -7L4.9 -4.9L7 0L4.9 4.9L0 7L-4.9 4.9L-7 0L-4.9 -4.9Z" fill="#297EA6"></path></g><g transform="translate(760 371)"><path d="M0 -12L8.5 -8.5L12 0L8.5 8.5L0 12L-8.5 8.5L-12 0L-8.5 -8.5Z" fill="#297EA6"></path></g><g transform="translate(406 370)"><path d="M0 -11L7.8 -7.8L11 0L7.8 7.8L0 11L-7.8 7.8L-11 0L-7.8 -7.8Z" fill="#297EA6"></path></g><g transform="translate(186 269)"><path d="M0 -11L7.8 -7.8L11 0L7.8 7.8L0 11L-7.8 7.8L-11 0L-7.8 -7.8Z" fill="#297EA6"></path></g><g transform="translate(101 479)"><path d="M0 -11L7.8 -7.8L11 0L7.8 7.8L0 11L-7.8 7.8L-11 0L-7.8 -7.8Z" fill="#297EA6"></path></g><g transform="translate(771 416)"><path d="M0 -12L8.5 -8.5L12 0L8.5 8.5L0 12L-8.5 8.5L-12 0L-8.5 -8.5Z" fill="#297EA6"></path></g><g transform="translate(139 116)"><path d="M0 -10L7.1 -7.1L10 0L7.1 7.1L0 10L-7.1 7.1L-10 0L-7.1 -7.1Z" fill="#297EA6"></path></g><g transform="translate(851 60)"><path d="M0 -7L4.9 -4.9L7 0L4.9 4.9L0 7L-4.9 4.9L-7 0L-4.9 -4.9Z" fill="#297EA6"></path></g><g transform="translate(54 512)"><path d="M0 -12L8.5 -8.5L12 0L8.5 8.5L0 12L-8.5 8.5L-12 0L-8.5 -8.5Z" fill="#297EA6"></path></g><g transform="translate(124 559)"><path d="M0 -7L4.9 -4.9L7 0L4.9 4.9L0 7L-4.9 4.9L-7 0L-4.9 -4.9Z" fill="#297EA6"></path></g><g transform="translate(297 181)"><path d="M0 -3L2.1 -2.1L3 0L2.1 2.1L0 3L-2.1 2.1L-3 0L-2.1 -2.1Z" fill="#297EA6"></path></g><g transform="translate(336 277)"><path d="M0 -8L5.7 -5.7L8 0L5.7 5.7L0 8L-5.7 5.7L-8 0L-5.7 -5.7Z" fill="#297EA6"></path></g><g transform="translate(738 431)"><path d="M0 -11L7.8 -7.8L11 0L7.8 7.8L0 11L-7.8 7.8L-11 0L-7.8 -7.8Z" fill="#297EA6"></path></g><g transform="translate(623 40)"><path d="M0 -7L4.9 -4.9L7 0L4.9 4.9L0 7L-4.9 4.9L-7 0L-4.9 -4.9Z" fill="#297EA6"></path></g><g transform="translate(280 26)"><path d="M0 -11L7.8 -7.8L11 0L7.8 7.8L0 11L-7.8 7.8L-11 0L-7.8 -7.8Z" fill="#297EA6"></path></g><g transform="translate(401 449)"><path d="M0 -4L2.8 -2.8L4 0L2.8 2.8L0 4L-2.8 2.8L-4 0L-2.8 -2.8Z" fill="#297EA6"></path></g><g transform="translate(370 112)"><path d="M0 -7L4.9 -4.9L7 0L4.9 4.9L0 7L-4.9 4.9L-7 0L-4.9 -4.9Z" fill="#297EA6"></path></g><g transform="translate(467 229)"><path d="M0 -6L4.2 -4.2L6 0L4.2 4.2L0 6L-4.2 4.2L-6 0L-4.2 -4.2Z" fill="#297EA6"></path></g><g transform="translate(767 589)"><path d="M0 -1L0.7 -0.7L1 0L0.7 0.7L0 1L-0.7 0.7L-1 0L-0.7 -0.7Z" fill="#297EA6"></path></g><g transform="translate(788 60)"><path d="M0 -8L5.7 -5.7L8 0L5.7 5.7L0 8L-5.7 5.7L-8 0L-5.7 -5.7Z" fill="#297EA6"></path></g><g transform="translate(623 130)"><path d="M0 -10L7.1 -7.1L10 0L7.1 7.1L0 10L-7.1 7.1L-10 0L-7.1 -7.1Z" fill="#297EA6"></path></g><g transform="translate(73 474)"><path d="M0 -12L8.5 -8.5L12 0L8.5 8.5L0 12L-8.5 8.5L-12 0L-8.5 -8.5Z" fill="#297EA6"></path></g><g transform="translate(539 393)"><path d="M0 -2L1.4 -1.4L2 0L1.4 1.4L0 2L-1.4 1.4L-2 0L-1.4 -1.4Z" fill="#297EA6"></path></g><g transform="translate(672 188)"><path d="M0 -3L2.1 -2.1L3 0L2.1 2.1L0 3L-2.1 2.1L-3 0L-2.1 -2.1Z" fill="#297EA6"></path></g><g transform="translate(127 594)"><path d="M0 -6L4.2 -4.2L6 0L4.2 4.2L0 6L-4.2 4.2L-6 0L-4.2 -4.2Z" fill="#297EA6"></path></g><g transform="translate(588 327)"><path d="M0 -3L2.1 -2.1L3 0L2.1 2.1L0 3L-2.1 2.1L-3 0L-2.1 -2.1Z" fill="#297EA6"></path></g><g transform="translate(802 585)"><path d="M0 -11L7.8 -7.8L11 0L7.8 7.8L0 11L-7.8 7.8L-11 0L-7.8 -7.8Z" fill="#297EA6"></path></g><g transform="translate(691 544)"><path d="M0 -2L1.4 -1.4L2 0L1.4 1.4L0 2L-1.4 1.4L-2 0L-1.4 -1.4Z" fill="#297EA6"></path></g><g transform="translate(794 465)"><path d="M0 -10L7.1 -7.1L10 0L7.1 7.1L0 10L-7.1 7.1L-10 0L-7.1 -7.1Z" fill="#297EA6"></path></g><g transform="translate(171 97)"><path d="M0 -1L0.7 -0.7L1 0L0.7 0.7L0 1L-0.7 0.7L-1 0L-0.7 -0.7Z" fill="#297EA6"></path></g><g transform="translate(824 430)"><path d="M0 -12L8.5 -8.5L12 0L8.5 8.5L0 12L-8.5 8.5L-12 0L-8.5 -8.5Z" fill="#297EA6"></path></g><g transform="translate(727 285)"><path d="M0 -10L7.1 -7.1L10 0L7.1 7.1L0 10L-7.1 7.1L-10 0L-7.1 -7.1Z" fill="#297EA6"></path></g><g transform="translate(208 326)"><path d="M0 -3L2.1 -2.1L3 0L2.1 2.1L0 3L-2.1 2.1L-3 0L-2.1 -2.1Z" fill="#297EA6"></path></g><g transform="translate(327 400)"><path d="M0 -11L7.8 -7.8L11 0L7.8 7.8L0 11L-7.8 7.8L-11 0L-7.8 -7.8Z" fill="#297EA6"></path></g><g transform="translate(360 553)"><path d="M0 -8L5.7 -5.7L8 0L5.7 5.7L0 8L-5.7 5.7L-8 0L-5.7 -5.7Z" fill="#297EA6"></path></g><g transform="translate(595 420)"><path d="M0 -10L7.1 -7.1L10 0L7.1 7.1L0 10L-7.1 7.1L-10 0L-7.1 -7.1Z" fill="#297EA6"></path></g><g transform="translate(78 5)"><path d="M0 -5L3.5 -3.5L5 0L3.5 3.5L0 5L-3.5 3.5L-5 0L-3.5 -3.5Z" fill="#297EA6"></path></g><g transform="translate(414 574)"><path d="M0 -8L5.7 -5.7L8 0L5.7 5.7L0 8L-5.7 5.7L-8 0L-5.7 -5.7Z" fill="#297EA6"></path></g><g transform="translate(178 366)"><path d="M0 -9L6.4 -6.4L9 0L6.4 6.4L0 9L-6.4 6.4L-9 0L-6.4 -6.4Z" fill="#297EA6"></path></g><g transform="translate(203 419)"><path d="M0 -6L4.2 -4.2L6 0L4.2 4.2L0 6L-4.2 4.2L-6 0L-4.2 -4.2Z" fill="#297EA6"></path></g><g transform="translate(535 426)"><path d="M0 -12L8.5 -8.5L12 0L8.5 8.5L0 12L-8.5 8.5L-12 0L-8.5 -8.5Z" fill="#297EA6"></path></g><g transform="translate(470 284)"><path d="M0 -1L0.7 -0.7L1 0L0.7 0.7L0 1L-0.7 0.7L-1 0L-0.7 -0.7Z" fill="#297EA6"></path></g><g transform="translate(169 200)"><path d="M0 -3L2.1 -2.1L3 0L2.1 2.1L0 3L-2.1 2.1L-3 0L-2.1 -2.1Z" fill="#297EA6"></path></g><g transform="translate(770 22)"><path d="M0 -11L7.8 -7.8L11 0L7.8 7.8L0 11L-7.8 7.8L-11 0L-7.8 -7.8Z" fill="#297EA6"></path></g><g transform="translate(397 104)"><path d="M0 -11L7.8 -7.8L11 0L7.8 7.8L0 11L-7.8 7.8L-11 0L-7.8 -7.8Z" fill="#297EA6"></path></g><g transform="translate(69 258)"><path d="M0 -4L2.8 -2.8L4 0L2.8 2.8L0 4L-2.8 2.8L-4 0L-2.8 -2.8Z" fill="#297EA6"></path></g><g transform="translate(653 446)"><path d="M0 -6L4.2 -4.2L6 0L4.2 4.2L0 6L-4.2 4.2L-6 0L-4.2 -4.2Z" fill="#297EA6"></path></g><g transform="translate(662 112)"><path d="M0 -6L4.2 -4.2L6 0L4.2 4.2L0 6L-4.2 4.2L-6 0L-4.2 -4.2Z" fill="#297EA6"></path></g><g transform="translate(716 82)"><path d="M0 -4L2.8 -2.8L4 0L2.8 2.8L0 4L-2.8 2.8L-4 0L-2.8 -2.8Z" fill="#297EA6"></path></g><g transform="translate(888 345)"><path d="M0 -11L7.8 -7.8L11 0L7.8 7.8L0 11L-7.8 7.8L-11 0L-7.8 -7.8Z" fill="#297EA6"></path></g><g transform="translate(555 453)"><path d="M0 -7L4.9 -4.9L7 0L4.9 4.9L0 7L-4.9 4.9L-7 0L-4.9 -4.9Z" fill="#297EA6"></path></g><g transform="translate(466 41)"><path d="M0 -1L0.7 -0.7L1 0L0.7 0.7L0 1L-0.7 0.7L-1 0L-0.7 -0.7Z" fill="#297EA6"></path></g><g transform="translate(332 203)"><path d="M0 -10L7.1 -7.1L10 0L7.1 7.1L0 10L-7.1 7.1L-10 0L-7.1 -7.1Z" fill="#297EA6"></path></g><g transform="translate(149 544)"><path d="M0 -10L7.1 -7.1L10 0L7.1 7.1L0 10L-7.1 7.1L-10 0L-7.1 -7.1Z" fill="#297EA6"></path></g><g transform="translate(338 249)"><path d="M0 -3L2.1 -2.1L3 0L2.1 2.1L0 3L-2.1 2.1L-3 0L-2.1 -2.1Z" fill="#297EA6"></path></g><g transform="translate(457 547)"><path d="M0 -10L7.1 -7.1L10 0L7.1 7.1L0 10L-7.1 7.1L-10 0L-7.1 -7.1Z" fill="#297EA6"></path></g><g transform="translate(609 589)"><path d="M0 -5L3.5 -3.5L5 0L3.5 3.5L0 5L-3.5 3.5L-5 0L-3.5 -3.5Z" fill="#297EA6"></path></g><g transform="translate(283 569)"><path d="M0 -3L2.1 -2.1L3 0L2.1 2.1L0 3L-2.1 2.1L-3 0L-2.1 -2.1Z" fill="#297EA6"></path></g><g transform="translate(8 561)"><path d="M0 -9L6.4 -6.4L9 0L6.4 6.4L0 9L-6.4 6.4L-9 0L-6.4 -6.4Z" fill="#297EA6"></path></g><g transform="translate(832 488)"><path d="M0 -5L3.5 -3.5L5 0L3.5 3.5L0 5L-3.5 3.5L-5 0L-3.5 -3.5Z" fill="#297EA6"></path></g><g transform="translate(799 532)"><path d="M0 -7L4.9 -4.9L7 0L4.9 4.9L0 7L-4.9 4.9L-7 0L-4.9 -4.9Z" fill="#297EA6"></path></g><g transform="translate(246 373)"><path d="M0 -6L4.2 -4.2L6 0L4.2 4.2L0 6L-4.2 4.2L-6 0L-4.2 -4.2Z" fill="#297EA6"></path></g><g transform="translate(484 460)"><path d="M0 -4L2.8 -2.8L4 0L2.8 2.8L0 4L-2.8 2.8L-4 0L-2.8 -2.8Z" fill="#297EA6"></path></g><g transform="translate(882 474)"><path d="M0 -9L6.4 -6.4L9 0L6.4 6.4L0 9L-6.4 6.4L-9 0L-6.4 -6.4Z" fill="#297EA6"></path></g><g transform="translate(234 453)"><path d="M0 -10L7.1 -7.1L10 0L7.1 7.1L0 10L-7.1 7.1L-10 0L-7.1 -7.1Z" fill="#297EA6"></path></g><g transform="translate(346 477)"><path d="M0 -10L7.1 -7.1L10 0L7.1 7.1L0 10L-7.1 7.1L-10 0L-7.1 -7.1Z" fill="#297EA6"></path></g><g transform="translate(869 379)"><path d="M0 -12L8.5 -8.5L12 0L8.5 8.5L0 12L-8.5 8.5L-12 0L-8.5 -8.5Z" fill="#297EA6"></path></g><g transform="translate(722 109)"><path d="M0 -10L7.1 -7.1L10 0L7.1 7.1L0 10L-7.1 7.1L-10 0L-7.1 -7.1Z" fill="#297EA6"></path></g><g transform="translate(367 43)"><path d="M0 -3L2.1 -2.1L3 0L2.1 2.1L0 3L-2.1 2.1L-3 0L-2.1 -2.1Z" fill="#297EA6"></path></g><g transform="translate(283 290)"><path d="M0 -5L3.5 -3.5L5 0L3.5 3.5L0 5L-3.5 3.5L-5 0L-3.5 -3.5Z" fill="#297EA6"></path></g><g transform="translate(567 220)"><path d="M0 -1L0.7 -0.7L1 0L0.7 0.7L0 1L-0.7 0.7L-1 0L-0.7 -0.7Z" fill="#297EA6"></path></g><g transform="translate(417 200)"><path d="M0 -2L1.4 -1.4L2 0L1.4 1.4L0 2L-1.4 1.4L-2 0L-1.4 -1.4Z" fill="#297EA6"></path></g><g transform="translate(504 198)"><path d="M0 -9L6.4 -6.4L9 0L6.4 6.4L0 9L-6.4 6.4L-9 0L-6.4 -6.4Z" fill="#297EA6"></path></g><g transform="translate(898 408)"><path d="M0 -10L7.1 -7.1L10 0L7.1 7.1L0 10L-7.1 7.1L-10 0L-7.1 -7.1Z" fill="#297EA6"></path></g><g transform="translate(735 239)"><path d="M0 -3L2.1 -2.1L3 0L2.1 2.1L0 3L-2.1 2.1L-3 0L-2.1 -2.1Z" fill="#297EA6"></path></g><g transform="translate(107 59)"><path d="M0 -5L3.5 -3.5L5 0L3.5 3.5L0 5L-3.5 3.5L-5 0L-3.5 -3.5Z" fill="#297EA6"></path></g><g transform="translate(262 50)"><path d="M0 -3L2.1 -2.1L3 0L2.1 2.1L0 3L-2.1 2.1L-3 0L-2.1 -2.1Z" fill="#297EA6"></path></g><g transform="translate(273 169)"><path d="M0 -7L4.9 -4.9L7 0L4.9 4.9L0 7L-4.9 4.9L-7 0L-4.9 -4.9Z" fill="#297EA6"></path></g><g transform="translate(330 74)"><path d="M0 -11L7.8 -7.8L11 0L7.8 7.8L0 11L-7.8 7.8L-11 0L-7.8 -7.8Z" fill="#297EA6"></path></g><g transform="translate(220 503)"><path d="M0 -3L2.1 -2.1L3 0L2.1 2.1L0 3L-2.1 2.1L-3 0L-2.1 -2.1Z" fill="#297EA6"></path></g><g transform="translate(98 239)"><path d="M0 -8L5.7 -5.7L8 0L5.7 5.7L0 8L-5.7 5.7L-8 0L-5.7 -5.7Z" fill="#297EA6"></path></g><g transform="translate(181 308)"><path d="M0 -4L2.8 -2.8L4 0L2.8 2.8L0 4L-2.8 2.8L-4 0L-2.8 -2.8Z" fill="#297EA6"></path></g><g transform="translate(74 598)"><path d="M0 -12L8.5 -8.5L12 0L8.5 8.5L0 12L-8.5 8.5L-12 0L-8.5 -8.5Z" fill="#297EA6"></path></g><g transform="translate(537 542)"><path d="M0 -6L4.2 -4.2L6 0L4.2 4.2L0 6L-4.2 4.2L-6 0L-4.2 -4.2Z" fill="#297EA6"></path></g><g transform="translate(46 597)"><path d="M0 -12L8.5 -8.5L12 0L8.5 8.5L0 12L-8.5 8.5L-12 0L-8.5 -8.5Z" fill="#297EA6"></path></g><g transform="translate(838 139)"><path d="M0 -1L0.7 -0.7L1 0L0.7 0.7L0 1L-0.7 0.7L-1 0L-0.7 -0.7Z" fill="#297EA6"></path></g><g transform="translate(47 464)"><path d="M0 -9L6.4 -6.4L9 0L6.4 6.4L0 9L-6.4 6.4L-9 0L-6.4 -6.4Z" fill="#297EA6"></path></g><g transform="translate(821 270)"><path d="M0 -2L1.4 -1.4L2 0L1.4 1.4L0 2L-1.4 1.4L-2 0L-1.4 -1.4Z" fill="#297EA6"></path></g><g transform="translate(841 407)"><path d="M0 -9L6.4 -6.4L9 0L6.4 6.4L0 9L-6.4 6.4L-9 0L-6.4 -6.4Z" fill="#297EA6"></path></g><g transform="translate(584 185)"><path d="M0 -3L2.1 -2.1L3 0L2.1 2.1L0 3L-2.1 2.1L-3 0L-2.1 -2.1Z" fill="#297EA6"></path></g><g transform="translate(65 315)"><path d="M0 -1L0.7 -0.7L1 0L0.7 0.7L0 1L-0.7 0.7L-1 0L-0.7 -0.7Z" fill="#297EA6"></path></g><g transform="translate(268 592)"><path d="M0 -4L2.8 -2.8L4 0L2.8 2.8L0 4L-2.8 2.8L-4 0L-2.8 -2.8Z" fill="#297EA6"></path></g><g transform="translate(14 276)"><path d="M0 -1L0.7 -0.7L1 0L0.7 0.7L0 1L-0.7 0.7L-1 0L-0.7 -0.7Z" fill="#297EA6"></path></g><g transform="translate(62 78)"><path d="M0 -11L7.8 -7.8L11 0L7.8 7.8L0 11L-7.8 7.8L-11 0L-7.8 -7.8Z" fill="#297EA6"></path></g><g transform="translate(535 153)"><path d="M0 -11L7.8 -7.8L11 0L7.8 7.8L0 11L-7.8 7.8L-11 0L-7.8 -7.8Z" fill="#297EA6"></path></g><g transform="translate(756 289)"><path d="M0 -2L1.4 -1.4L2 0L1.4 1.4L0 2L-1.4 1.4L-2 0L-1.4 -1.4Z" fill="#297EA6"></path></g><g transform="translate(642 322)"><path d="M0 -1L0.7 -0.7L1 0L0.7 0.7L0 1L-0.7 0.7L-1 0L-0.7 -0.7Z" fill="#297EA6"></path></g><g transform="translate(416 150)"><path d="M0 -10L7.1 -7.1L10 0L7.1 7.1L0 10L-7.1 7.1L-10 0L-7.1 -7.1Z" fill="#297EA6"></path></g><g transform="translate(260 496)"><path d="M0 -9L6.4 -6.4L9 0L6.4 6.4L0 9L-6.4 6.4L-9 0L-6.4 -6.4Z" fill="#297EA6"></path></g><g transform="translate(674 4)"><path d="M0 -11L7.8 -7.8L11 0L7.8 7.8L0 11L-7.8 7.8L-11 0L-7.8 -7.8Z" fill="#297EA6"></path></g><g transform="translate(114 191)"><path d="M0 -12L8.5 -8.5L12 0L8.5 8.5L0 12L-8.5 8.5L-12 0L-8.5 -8.5Z" fill="#297EA6"></path></g><g transform="translate(334 597)"><path d="M0 -5L3.5 -3.5L5 0L3.5 3.5L0 5L-3.5 3.5L-5 0L-3.5 -3.5Z" fill="#297EA6"></path></g><g transform="translate(874 197)"><path d="M0 -5L3.5 -3.5L5 0L3.5 3.5L0 5L-3.5 3.5L-5 0L-3.5 -3.5Z" fill="#297EA6"></path></g><g transform="translate(897 529)"><path d="M0 -4L2.8 -2.8L4 0L2.8 2.8L0 4L-2.8 2.8L-4 0L-2.8 -2.8Z" fill="#297EA6"></path></g><g transform="translate(227 279)"><path d="M0 -1L0.7 -0.7L1 0L0.7 0.7L0 1L-0.7 0.7L-1 0L-0.7 -0.7Z" fill="#297EA6"></path></g><g transform="translate(89 379)"><path d="M0 -3L2.1 -2.1L3 0L2.1 2.1L0 3L-2.1 2.1L-3 0L-2.1 -2.1Z" fill="#297EA6"></path></g><g transform="translate(114 96)"><path d="M0 -10L7.1 -7.1L10 0L7.1 7.1L0 10L-7.1 7.1L-10 0L-7.1 -7.1Z" fill="#297EA6"></path></g><g transform="translate(898 589)"><path d="M0 -1L0.7 -0.7L1 0L0.7 0.7L0 1L-0.7 0.7L-1 0L-0.7 -0.7Z" fill="#297EA6"></path></g><g transform="translate(710 389)"><path d="M0 -10L7.1 -7.1L10 0L7.1 7.1L0 10L-7.1 7.1L-10 0L-7.1 -7.1Z" fill="#297EA6"></path></g><g transform="translate(354 227)"><path d="M0 -6L4.2 -4.2L6 0L4.2 4.2L0 6L-4.2 4.2L-6 0L-4.2 -4.2Z" fill="#297EA6"></path></g><g transform="translate(749 343)"><path d="M0 -6L4.2 -4.2L6 0L4.2 4.2L0 6L-4.2 4.2L-6 0L-4.2 -4.2Z" fill="#297EA6"></path></g><g transform="translate(834 321)"><path d="M0 -1L0.7 -0.7L1 0L0.7 0.7L0 1L-0.7 0.7L-1 0L-0.7 -0.7Z" fill="#297EA6"></path></g><g transform="translate(629 475)"><path d="M0 -11L7.8 -7.8L11 0L7.8 7.8L0 11L-7.8 7.8L-11 0L-7.8 -7.8Z" fill="#297EA6"></path></g><g transform="translate(898 59)"><path d="M0 -8L5.7 -5.7L8 0L5.7 5.7L0 8L-5.7 5.7L-8 0L-5.7 -5.7Z" fill="#297EA6"></path></g><g transform="translate(131 3)"><path d="M0 -8L5.7 -5.7L8 0L5.7 5.7L0 8L-5.7 5.7L-8 0L-5.7 -5.7Z" fill="#297EA6"></path></g><g transform="translate(531 54)"><path d="M0 -10L7.1 -7.1L10 0L7.1 7.1L0 10L-7.1 7.1L-10 0L-7.1 -7.1Z" fill="#297EA6"></path></g><g transform="translate(332 3)"><path d="M0 -3L2.1 -2.1L3 0L2.1 2.1L0 3L-2.1 2.1L-3 0L-2.1 -2.1Z" fill="#297EA6"></path></g><g transform="translate(748 462)"><path d="M0 -11L7.8 -7.8L11 0L7.8 7.8L0 11L-7.8 7.8L-11 0L-7.8 -7.8Z" fill="#297EA6"></path></g></g></svg>